<svg width="304" height="364" viewBox="0 0 304 364" fill="none" xmlns="http://www.w3.org/2000/svg">
<path d="M199.268 154.693L3.3 267.848C1.47321 268.909 0 267.789 0 265.343V119.891C0 117.446 1.47321 114.617 3.3 113.556L199.268 0.400333C201.095 -0.660499 202.568 0.459268 202.568 2.90508V148.357C202.597 150.803 201.095 153.632 199.268 154.693Z" fill="url(#paint0_linear_3_4664)"/>
<path d="M202.597 21.3497L0 138.336V119.919C0 117.473 1.47321 114.644 3.3 113.583L199.268 0.427677C201.095 -0.633156 202.568 0.486613 202.568 2.93242V21.3497H202.597Z" fill="#33976D"/>
<path d="M172.31 28.1295C172.31 30.1038 170.896 32.5496 169.187 33.5515C167.448 34.5534 166.063 33.7578 166.063 31.754C166.063 29.7797 167.478 27.3339 169.187 26.332C170.896 25.3301 172.31 26.1257 172.31 28.1295Z" fill="url(#paint1_linear_3_4664)"/>
<path d="M182.387 22.2944C182.387 24.2687 180.973 26.7145 179.264 27.7164C177.525 28.7183 176.141 27.9227 176.141 25.9189C176.141 23.9445 177.555 21.4987 179.264 20.4968C180.973 19.5244 182.387 20.32 182.387 22.2944Z" fill="url(#paint2_linear_3_4664)"/>
<path d="M192.464 16.4893C192.464 18.4637 191.05 20.9095 189.341 21.9114C187.603 22.9133 186.218 22.1177 186.218 20.1139C186.218 18.1395 187.632 15.6937 189.341 14.6918C191.05 13.6899 192.464 14.4855 192.464 16.4893Z" fill="url(#paint3_linear_3_4664)"/>
<path opacity="0.23" d="M144.878 47.5482L32.7664 112.288C31.2637 113.143 30.0557 112.23 30.0557 110.255C30.0557 108.281 31.2637 105.953 32.7664 105.098L144.908 40.3582C146.411 39.5036 147.619 40.4171 147.619 42.3914C147.589 44.3952 146.381 46.6937 144.878 47.5482Z" fill="url(#paint4_linear_3_4664)"/>
<path d="M71.4507 179.121L25.1033 205.878C22.3042 207.498 20.0354 205.789 20.0354 202.047V150.744C20.0354 147.001 22.3042 142.67 25.1033 141.049L71.4507 114.292C74.2498 112.672 76.5186 114.381 76.5186 118.123V169.456C76.5186 173.169 74.2498 177.5 71.4507 179.121Z" fill="#33976D"/>
<path d="M183.416 52.0275L91.1035 105.334V102.947L183.416 49.6406V52.0275Z" fill="#33976D"/>
<path d="M183.415 59.7184L91.1033 113.025V110.638L183.415 57.3315V59.7184Z" fill="#33976D"/>
<path d="M183.415 67.3799L91.1033 120.687V118.329L183.415 65.0225V67.3799Z" fill="#33976D"/>
<path d="M183.415 75.071L91.1033 128.378V125.991L183.415 72.6841V75.071Z" fill="#33976D"/>
<path d="M183.415 82.7619L91.1033 136.069V133.682L183.415 80.375V82.7619Z" fill="#33976D"/>
<path d="M127.846 122.514L91.1033 143.73V141.373L127.846 120.156V122.514Z" fill="#33976D"/>
<path d="M183.416 107.78L91.1035 161.087V158.73L183.416 105.423V107.78Z" fill="#33976D"/>
<path d="M183.415 115.472L91.1033 168.779V166.392L183.415 113.085V115.472Z" fill="#33976D"/>
<path d="M183.415 123.162L91.1033 176.469V174.082L183.415 120.775V123.162Z" fill="#33976D"/>
<path d="M183.415 130.823L91.1033 184.13V181.773L183.415 128.466V130.823Z" fill="#33976D"/>
<path d="M183.415 138.515L91.1033 191.822V189.435L183.415 136.128V138.515Z" fill="#33976D"/>
<path d="M127.846 178.296L91.1033 199.512V197.125L127.846 175.909V178.296Z" fill="#33976D"/>
<path d="M71.4507 210.858L25.1033 237.614C22.3042 239.235 20.0354 237.526 20.0354 233.783V225.974C20.0354 222.232 22.3042 217.9 25.1033 216.28L71.4507 189.494C74.2498 187.873 76.5186 189.582 76.5186 193.324V201.133C76.5186 204.905 74.2498 209.237 71.4507 210.858Z" fill="#33976D"/>
<path d="M246.268 194.693L50.3 307.848C48.4732 308.909 47 307.789 47 305.343V159.891C47 157.446 48.4732 154.617 50.3 153.556L246.268 40.4003C248.095 39.3395 249.568 40.4593 249.568 42.9051V188.357C249.597 190.803 248.095 193.632 246.268 194.693Z" fill="url(#paint5_linear_3_4664)"/>
<path d="M249.597 61.3497L47 178.336V159.919C47 157.473 48.4732 154.644 50.3 153.583L246.268 40.4277C248.095 39.3668 249.568 40.4866 249.568 42.9324V61.3497H249.597Z" fill="#33976D"/>
<path d="M219.31 68.1295C219.31 70.1038 217.896 72.5496 216.187 73.5515C214.448 74.5534 213.063 73.7578 213.063 71.754C213.063 69.7797 214.478 67.3339 216.187 66.332C217.896 65.3301 219.31 66.1257 219.31 68.1295Z" fill="url(#paint6_linear_3_4664)"/>
<path d="M229.387 62.2944C229.387 64.2687 227.973 66.7145 226.264 67.7164C224.525 68.7183 223.141 67.9227 223.141 65.9189C223.141 63.9445 224.555 61.4987 226.264 60.4968C227.973 59.5244 229.387 60.32 229.387 62.2944Z" fill="url(#paint7_linear_3_4664)"/>
<path d="M239.464 56.4893C239.464 58.4637 238.05 60.9095 236.341 61.9114C234.603 62.9133 233.218 62.1177 233.218 60.1139C233.218 58.1395 234.632 55.6937 236.341 54.6918C238.05 53.6899 239.464 54.4855 239.464 56.4893Z" fill="url(#paint8_linear_3_4664)"/>
<path opacity="0.23" d="M191.878 87.5482L79.7664 152.288C78.2637 153.143 77.0557 152.23 77.0557 150.255C77.0557 148.281 78.2637 145.953 79.7664 145.098L191.908 80.3582C193.411 79.5036 194.619 80.4171 194.619 82.3914C194.589 84.3952 193.381 86.6937 191.878 87.5482Z" fill="url(#paint9_linear_3_4664)"/>
<path d="M118.451 219.121L72.1033 245.878C69.3042 247.498 67.0354 245.789 67.0354 242.047V190.744C67.0354 187.001 69.3042 182.67 72.1033 181.049L118.451 154.292C121.25 152.672 123.519 154.381 123.519 158.123V209.456C123.519 213.169 121.25 217.5 118.451 219.121Z" fill="#33976D"/>
<path d="M230.416 92.0275L138.104 145.334V142.947L230.416 89.6406V92.0275Z" fill="#33976D"/>
<path d="M230.415 99.7184L138.103 153.025V150.638L230.415 97.3315V99.7184Z" fill="#33976D"/>
<path d="M230.415 107.38L138.103 160.687V158.329L230.415 105.022V107.38Z" fill="#33976D"/>
<path d="M230.415 115.071L138.103 168.378V165.991L230.415 112.684V115.071Z" fill="#33976D"/>
<path d="M230.415 122.762L138.103 176.069V173.682L230.415 120.375V122.762Z" fill="#33976D"/>
<path d="M174.846 162.514L138.103 183.73V181.373L174.846 160.156V162.514Z" fill="#33976D"/>
<path d="M230.416 147.78L138.104 201.087V198.73L230.416 145.423V147.78Z" fill="#33976D"/>
<path d="M230.415 155.472L138.103 208.779V206.392L230.415 153.085V155.472Z" fill="#33976D"/>
<path d="M230.415 163.162L138.103 216.469V214.082L230.415 160.775V163.162Z" fill="#33976D"/>
<path d="M230.415 170.823L138.103 224.13V221.773L230.415 168.466V170.823Z" fill="#33976D"/>
<path d="M230.415 178.515L138.103 231.822V229.435L230.415 176.128V178.515Z" fill="#33976D"/>
<path d="M174.846 218.296L138.103 239.512V237.125L174.846 215.909V218.296Z" fill="#33976D"/>
<path d="M118.451 250.858L72.1033 277.614C69.3042 279.235 67.0354 277.526 67.0354 273.783V265.974C67.0354 262.232 69.3042 257.9 72.1033 256.28L118.451 229.494C121.25 227.873 123.519 229.582 123.519 233.324V241.133C123.519 244.905 121.25 249.237 118.451 250.858Z" fill="#33976D"/>
<path d="M300.268 249.693L104.3 362.848C102.473 363.909 101 362.789 101 360.343V214.891C101 212.446 102.473 209.617 104.3 208.556L300.268 95.4003C302.095 94.3395 303.568 95.4593 303.568 97.9051V243.357C303.597 245.803 302.095 248.632 300.268 249.693Z" fill="url(#paint10_linear_3_4664)"/>
<path d="M303.597 116.35L101 233.336V214.919C101 212.473 102.473 209.644 104.3 208.583L300.268 95.4277C302.095 94.3668 303.568 95.4866 303.568 97.9324V116.35H303.597Z" fill="#33976D"/>
<path d="M273.31 123.129C273.31 125.104 271.896 127.55 270.187 128.552C268.448 129.553 267.063 128.758 267.063 126.754C267.063 124.78 268.478 122.334 270.187 121.332C271.896 120.33 273.31 121.126 273.31 123.129Z" fill="url(#paint11_linear_3_4664)"/>
<path d="M283.387 117.294C283.387 119.269 281.973 121.714 280.264 122.716C278.525 123.718 277.141 122.923 277.141 120.919C277.141 118.945 278.555 116.499 280.264 115.497C281.973 114.524 283.387 115.32 283.387 117.294Z" fill="url(#paint12_linear_3_4664)"/>
<path d="M293.464 111.489C293.464 113.464 292.05 115.909 290.341 116.911C288.603 117.913 287.218 117.118 287.218 115.114C287.218 113.14 288.632 110.694 290.341 109.692C292.05 108.69 293.464 109.486 293.464 111.489Z" fill="url(#paint13_linear_3_4664)"/>
<path opacity="0.23" d="M245.878 142.548L133.766 207.288C132.264 208.143 131.056 207.23 131.056 205.255C131.056 203.281 132.264 200.953 133.766 200.098L245.908 135.358C247.411 134.504 248.619 135.417 248.619 137.391C248.589 139.395 247.381 141.694 245.878 142.548Z" fill="url(#paint14_linear_3_4664)"/>
<path d="M172.451 274.121L126.103 300.878C123.304 302.498 121.035 300.789 121.035 297.047V245.744C121.035 242.001 123.304 237.67 126.103 236.049L172.451 209.292C175.25 207.672 177.519 209.381 177.519 213.123V264.456C177.519 268.169 175.25 272.5 172.451 274.121Z" fill="#33976D"/>
<path d="M284.416 147.027L192.104 200.334V197.947L284.416 144.641V147.027Z" fill="#33976D"/>
<path d="M284.415 154.718L192.103 208.025V205.638L284.415 152.332V154.718Z" fill="#33976D"/>
<path d="M284.415 162.38L192.103 215.687V213.329L284.415 160.022V162.38Z" fill="#33976D"/>
<path d="M284.415 170.071L192.103 223.378V220.991L284.415 167.684V170.071Z" fill="#33976D"/>
<path d="M284.415 177.762L192.103 231.069V228.682L284.415 175.375V177.762Z" fill="#33976D"/>
<path d="M228.846 217.514L192.103 238.73V236.373L228.846 215.156V217.514Z" fill="#33976D"/>
<path d="M284.416 202.78L192.104 256.087V253.73L284.416 200.423V202.78Z" fill="#33976D"/>
<path d="M284.415 210.472L192.103 263.779V261.392L284.415 208.085V210.472Z" fill="#33976D"/>
<path d="M284.415 218.162L192.103 271.469V269.082L284.415 215.775V218.162Z" fill="#33976D"/>
<path d="M284.415 225.823L192.103 279.13V276.773L284.415 223.466V225.823Z" fill="#33976D"/>
<path d="M284.415 233.515L192.103 286.822V284.435L284.415 231.128V233.515Z" fill="#33976D"/>
<path d="M228.846 273.296L192.103 294.512V292.125L228.846 270.909V273.296Z" fill="#33976D"/>
<path d="M172.451 305.858L126.103 332.614C123.304 334.235 121.035 332.526 121.035 328.783V320.974C121.035 317.232 123.304 312.9 126.103 311.28L172.451 284.494C175.25 282.873 177.519 284.582 177.519 288.324V296.133C177.519 299.905 175.25 304.237 172.451 305.858Z" fill="#33976D"/>
<defs>
<linearGradient id="paint0_linear_3_4664" x1="49.9169" y1="43.3657" x2="262.08" y2="185.07" gradientUnits="userSpaceOnUse">
<stop stop-color="#F4F3F1"/>
<stop offset="1" stop-color="#EAE7DC"/>
</linearGradient>
<linearGradient id="paint1_linear_3_4664" x1="166.958" y1="28.6328" x2="173.301" y2="31.6449" gradientUnits="userSpaceOnUse">
<stop stop-color="#E9F2FF"/>
<stop offset="1" stop-color="#BDD6FF"/>
</linearGradient>
<linearGradient id="paint2_linear_3_4664" x1="177.033" y1="22.8149" x2="183.377" y2="25.8272" gradientUnits="userSpaceOnUse">
<stop stop-color="#E9F2FF"/>
<stop offset="1" stop-color="#BDD6FF"/>
</linearGradient>
<linearGradient id="paint3_linear_3_4664" x1="187.108" y1="16.9975" x2="193.451" y2="20.0097" gradientUnits="userSpaceOnUse">
<stop stop-color="#E9F2FF"/>
<stop offset="1" stop-color="#BDD6FF"/>
</linearGradient>
<linearGradient id="paint4_linear_3_4664" x1="71.7419" y1="46.1413" x2="142.303" y2="93.269" gradientUnits="userSpaceOnUse">
<stop stop-color="#EAE7DC"/>
<stop offset="1" stop-color="#EAE7DC"/>
</linearGradient>
<linearGradient id="paint5_linear_3_4664" x1="96.9169" y1="83.3657" x2="309.08" y2="225.07" gradientUnits="userSpaceOnUse">
<stop stop-color="#F4F3F1"/>
<stop offset="1" stop-color="#EAE7DC"/>
</linearGradient>
<linearGradient id="paint6_linear_3_4664" x1="213.958" y1="68.6328" x2="220.301" y2="71.6449" gradientUnits="userSpaceOnUse">
<stop stop-color="#E9F2FF"/>
<stop offset="1" stop-color="#BDD6FF"/>
</linearGradient>
<linearGradient id="paint7_linear_3_4664" x1="224.033" y1="62.8149" x2="230.377" y2="65.8272" gradientUnits="userSpaceOnUse">
<stop stop-color="#E9F2FF"/>
<stop offset="1" stop-color="#BDD6FF"/>
</linearGradient>
<linearGradient id="paint8_linear_3_4664" x1="234.108" y1="56.9975" x2="240.451" y2="60.0097" gradientUnits="userSpaceOnUse">
<stop stop-color="#E9F2FF"/>
<stop offset="1" stop-color="#BDD6FF"/>
</linearGradient>
<linearGradient id="paint9_linear_3_4664" x1="118.742" y1="86.1413" x2="189.303" y2="133.269" gradientUnits="userSpaceOnUse">
<stop stop-color="#EAE7DC"/>
<stop offset="1" stop-color="#EAE7DC"/>
</linearGradient>
<linearGradient id="paint10_linear_3_4664" x1="150.917" y1="138.366" x2="363.08" y2="280.07" gradientUnits="userSpaceOnUse">
<stop stop-color="#F4F3F1"/>
<stop offset="1" stop-color="#EAE7DC"/>
</linearGradient>
<linearGradient id="paint11_linear_3_4664" x1="267.958" y1="123.633" x2="274.301" y2="126.645" gradientUnits="userSpaceOnUse">
<stop stop-color="#E9F2FF"/>
<stop offset="1" stop-color="#BDD6FF"/>
</linearGradient>
<linearGradient id="paint12_linear_3_4664" x1="278.033" y1="117.815" x2="284.377" y2="120.827" gradientUnits="userSpaceOnUse">
<stop stop-color="#E9F2FF"/>
<stop offset="1" stop-color="#BDD6FF"/>
</linearGradient>
<linearGradient id="paint13_linear_3_4664" x1="288.108" y1="111.998" x2="294.451" y2="115.01" gradientUnits="userSpaceOnUse">
<stop stop-color="#E9F2FF"/>
<stop offset="1" stop-color="#BDD6FF"/>
</linearGradient>
<linearGradient id="paint14_linear_3_4664" x1="172.742" y1="141.141" x2="243.303" y2="188.269" gradientUnits="userSpaceOnUse">
<stop stop-color="#EAE7DC"/>
<stop offset="1" stop-color="#EAE7DC"/>
</linearGradient>
</defs>
</svg>
