<svg width="733" height="566" viewBox="0 0 733 566" fill="none" xmlns="http://www.w3.org/2000/svg">
<path d="M730.453 560.89H2.47843C1.22154 560.89 0.0825175 561.833 0.00396193 563.13C-0.0745936 564.505 1.02517 565.684 2.3999 565.684H730.453C731.788 565.684 732.849 564.623 732.849 563.287C732.849 561.951 731.788 560.89 730.453 560.89Z" fill="url(#paint0_linear_3_4743)"/>
<path d="M255.231 105.088C276.902 105.088 294.469 87.5106 294.469 65.8275C294.469 44.1444 276.902 26.5668 255.231 26.5668C233.56 26.5668 215.992 44.1444 215.992 65.8275C215.992 87.5106 233.56 105.088 255.231 105.088Z" fill="#33976D"/>
<path d="M269.999 101.08C250.557 109.215 228.129 100.058 219.999 80.6043C211.868 61.1508 221.02 38.7105 240.462 30.5754C259.905 22.4403 282.333 31.5972 290.463 51.0507C298.594 70.5042 289.442 92.9445 269.999 101.08Z" fill="#33976D"/>
<path d="M281.97 82.1309C290.879 67.3569 286.131 48.1539 271.366 39.2398C256.6 30.3257 237.408 35.0761 228.499 49.8501C219.59 64.6241 224.338 83.8271 239.103 92.7412C253.869 101.655 273.061 96.9049 281.97 82.1309Z" fill="white"/>
<path d="M266.661 93.141C251.617 99.4683 234.256 92.355 227.933 77.3031C221.609 62.2512 228.718 44.8806 243.762 38.5533C258.805 32.226 276.166 39.3393 282.49 54.3912C288.813 69.4431 281.704 86.8137 266.661 93.141Z" fill="white"/>
<path d="M230.997 74.277L226.126 76.3205C225.341 76.6742 224.948 77.5782 225.262 78.4035C225.616 79.1895 226.519 79.5824 227.344 79.268L232.214 77.2245C233 76.8708 233.393 75.9668 233.078 75.1415C232.725 74.3163 231.821 73.9626 230.997 74.277Z" fill="#33976D"/>
<path d="M264.5 87.9927C263.715 88.3464 263.322 89.2503 263.636 90.0756L265.679 94.9488C266.032 95.7348 266.936 96.1278 267.76 95.8134C268.546 95.4597 268.939 94.5558 268.624 93.7305L266.582 88.8573C266.229 88.032 265.325 87.6783 264.5 87.9927Z" fill="#33976D"/>
<path d="M283.118 52.4262L278.248 54.4698C277.462 54.8235 277.069 55.7274 277.384 56.5527C277.737 57.3387 278.641 57.7317 279.465 57.4173L284.336 55.3737C285.121 55.02 285.514 54.1161 285.2 53.2908C284.846 52.4655 283.904 52.1118 283.118 52.4262Z" fill="#33976D"/>
<path d="M242.662 35.8809C241.877 36.2346 241.484 37.1385 241.798 37.9638L243.84 42.837C244.194 43.623 245.097 44.016 245.922 43.7016C246.708 43.3479 247.101 42.444 246.786 41.6187L244.744 36.7455C244.39 35.9202 243.487 35.5272 242.662 35.8809Z" fill="#33976D"/>
<path d="M253.66 22.5975L254.092 16.3881C254.131 15.8772 254.563 15.4842 255.074 15.5235L262.183 16.0344C262.694 16.0737 263.087 16.506 263.047 17.0169L262.615 23.2263C262.576 23.7372 262.144 24.1302 261.633 24.0909L254.524 23.58C254.013 23.5407 253.621 23.0691 253.66 22.5975Z" fill="#33976D"/>
<path d="M225.93 34.3875L221.216 30.3396C220.824 30.0252 220.234 30.0645 219.92 30.4575L215.285 35.8809C214.971 36.2739 215.01 36.8634 215.403 37.1778L220.117 41.2257C220.509 41.5401 221.099 41.5008 221.413 41.1078L226.047 35.6844C226.362 35.2914 226.322 34.7019 225.93 34.3875Z" fill="#33976D"/>
<path d="M233.55 24.2088C233.078 24.4053 232.568 24.1695 232.371 23.7372L230.643 19.6107C230.447 19.1391 230.682 18.6282 231.114 18.4317L239.52 14.8947C239.991 14.6982 240.502 14.934 240.698 15.3663L242.426 19.4928C242.623 19.9644 242.387 20.4753 241.955 20.6718L233.55 24.2088Z" fill="#33976D"/>
<path d="M235.749 25.7022C231.664 26.0166 227.619 23.6979 225.93 19.6893C223.848 14.6982 226.205 8.9211 231.193 6.8382C236.181 4.7553 241.955 7.11331 244.037 12.1044C245.726 16.113 244.547 20.5932 241.444 23.3049L242.387 25.545C246.668 22.2831 248.357 16.3881 246.197 11.2005C243.605 5.0304 236.495 2.0829 230.289 4.6767C224.123 7.2705 221.177 14.3838 223.769 20.5932C225.93 25.7808 231.311 28.689 236.652 27.9423L235.749 25.7022Z" fill="#33976D"/>
<path d="M239.756 28.8855C240.738 28.4925 241.719 28.0995 242.701 27.7851L240.227 21.8508L235.592 23.8158L238.067 29.7108C238.617 29.3964 239.166 29.1213 239.756 28.8855Z" fill="#33976D"/>
<path d="M257.863 64.6485C258.491 66.1026 257.784 67.7925 256.331 68.4213C254.877 69.0501 253.188 68.3427 252.56 66.8886C251.932 65.4345 252.639 63.7446 254.092 63.1158C255.584 62.5263 257.273 63.1944 257.863 64.6485Z" fill="#33976D"/>
<path d="M258.295 42.2475L256.252 65.9061C256.213 66.4956 255.663 66.9279 255.074 66.8886C254.485 66.8493 254.053 66.2991 254.092 65.7096C254.092 65.631 253.895 66.6528 258.295 42.2475Z" fill="#33976D"/>
<path d="M276.009 77.4995L254.799 66.8492C254.249 66.5741 254.053 65.9453 254.327 65.3951C254.602 64.8449 255.231 64.6484 255.781 64.9235C255.859 64.9235 254.956 64.3733 276.009 77.4995Z" fill="#33976D"/>
<path d="M256.291 65.3166C256.527 65.9061 256.252 66.6135 255.663 66.8493C255.074 67.0851 254.367 66.81 254.131 66.2205C253.895 65.631 254.17 64.9236 254.759 64.6878C255.349 64.452 256.056 64.7271 256.291 65.3166Z" fill="#33976D"/>
<path d="M547.065 235.8C546.79 235.486 546.319 235.328 545.887 235.446C543.805 235.997 540.073 235.171 538.188 234.503L536.185 224.482C537.638 223.145 540.78 220.945 542.901 220.63C543.333 220.591 543.687 220.277 543.844 219.844L546.397 212.22C546.554 211.788 546.436 211.355 546.122 211.041C544.59 209.508 543.451 205.853 543.098 203.928L550.757 197.168C552.642 197.758 556.138 199.369 557.434 201.059C557.709 201.413 558.141 201.57 558.573 201.491L566.429 199.919C566.861 199.84 567.214 199.526 567.332 199.094C567.882 197.011 570.474 194.181 571.967 192.884L581.629 196.146C582.022 198.072 582.415 201.884 581.59 203.888C581.433 204.281 581.511 204.753 581.786 205.107L587.089 211.12C587.364 211.434 587.835 211.591 588.267 211.473C590.349 210.923 594.08 211.748 595.966 212.417L597.969 222.438C596.516 223.774 593.373 225.975 591.252 226.289C590.82 226.329 590.467 226.643 590.31 227.075L587.757 234.7C587.6 235.132 587.717 235.564 588.032 235.879C589.563 237.411 590.703 241.066 591.056 242.992L583.397 249.752C581.512 249.162 578.016 247.551 576.72 245.861C576.445 245.507 576.013 245.35 575.581 245.429L567.725 247.001C567.293 247.079 566.939 247.394 566.822 247.826C566.272 249.909 563.679 252.738 562.187 254.035L552.524 250.773C552.092 248.848 551.739 245.036 552.564 243.031C552.721 242.638 552.642 242.167 552.367 241.813L547.065 235.8ZM569.1 233.324C574.559 232.224 578.055 226.918 576.955 221.456C575.855 215.993 570.553 212.495 565.093 213.596C559.634 214.696 556.138 220.001 557.238 225.464C558.338 230.927 563.64 234.425 569.1 233.324ZM570.357 239.651C579.312 237.844 585.086 229.119 583.279 220.198C581.472 211.238 572.753 205.46 563.836 207.268C554.92 209.076 549.107 217.801 550.914 226.722C552.721 235.682 561.44 241.459 570.357 239.651Z" fill="#33976D"/>
<path d="M612.07 271.642C612.148 271.288 612.423 271.052 612.776 270.974L619.022 269.716C619.375 269.637 619.729 269.795 619.925 270.07C620.946 271.406 623.735 272.703 625.228 273.174L631.276 267.83C631.001 266.297 630.059 263.389 628.88 262.21C628.645 261.974 628.566 261.62 628.645 261.266L630.687 255.254C630.805 254.939 631.08 254.703 631.433 254.625C633.122 254.389 635.597 252.62 636.775 251.599L635.165 243.66C633.711 243.149 630.726 242.481 629.077 242.913C628.723 242.992 628.37 242.913 628.173 242.638L623.971 237.883C623.735 237.608 623.696 237.254 623.814 236.94C624.442 235.368 624.167 232.342 623.853 230.809L616.194 228.215C615.015 229.237 612.973 231.477 612.502 233.128C612.423 233.481 612.148 233.717 611.795 233.796L605.549 235.053C605.196 235.132 604.842 234.975 604.646 234.7C603.625 233.363 600.836 232.067 599.343 231.595L593.295 236.94C593.57 238.472 594.512 241.381 595.691 242.56C595.926 242.795 596.005 243.149 595.926 243.503L593.884 249.516C593.766 249.83 593.491 250.066 593.138 250.145C591.449 250.38 588.974 252.149 587.796 253.171L589.406 261.109C590.859 261.62 593.845 262.288 595.494 261.856C595.848 261.777 596.201 261.856 596.398 262.131L600.6 266.886C600.836 267.161 600.875 267.515 600.758 267.83C600.129 269.402 600.404 272.428 600.718 273.96L608.377 276.554C609.595 275.532 611.637 273.292 612.07 271.642ZM614.23 262.092C608.849 263.192 603.625 259.694 602.564 254.35C601.464 248.966 604.96 243.739 610.302 242.678C615.683 241.577 620.907 245.075 621.967 250.42C623.067 255.764 619.611 260.991 614.23 262.092Z" fill="#33976D"/>
<path d="M173.965 145.607L167.052 143.013L160.964 147.257C160.257 147.729 159.315 147.218 159.354 146.393L159.707 139.004L153.816 134.524C153.148 134.013 153.345 132.952 154.169 132.716L161.318 130.751L163.753 123.756C164.028 122.97 165.088 122.813 165.56 123.52L169.645 129.69L177.029 129.847C177.854 129.847 178.325 130.83 177.814 131.498L173.18 137.275L175.301 144.349C175.536 145.174 174.751 145.921 173.965 145.607Z" fill="#33976D"/>
<path d="M184.57 101.355L180.8 91.2546L171.177 94.1235L167.013 84.3378L157.508 85.9491L153.187 79.1109L149.731 81.3117L155.505 90.4293L164.539 88.8966L168.859 99.0753L178.325 96.2457L181.703 105.403L184.57 101.355Z" fill="white"/>
<path d="M589.131 147.886L579.665 142.738L574.284 151.187L564.74 146.51L558.573 153.977L550.875 151.619L549.697 155.549L559.987 158.693L565.84 151.58L575.777 156.493L581.079 148.122L589.642 152.838L589.131 147.886Z" fill="#33976D"/>
<path d="M339.875 20.5146L335.829 30.4968L344.902 34.8591L341.328 44.9199L349.458 50.1468L348.044 58.0854L352.051 58.8321L353.975 48.2211L346.238 43.23L349.969 32.7762L341.053 28.4925L344.706 19.4142L339.875 20.5146Z" fill="#33976D"/>
<path d="M578.33 278.283L576.327 274.353L571.849 274.511L569.924 269.991L565.211 271.602L562.815 266.572L558.298 267.515L555.195 263.035L556.884 261.856L559.202 265.236L563.994 264.214L566.272 269.048L571.064 267.397L573.185 272.428L577.584 272.27L579.43 275.886L582.258 275.218L582.768 277.222L578.33 278.283Z" fill="#33976D"/>
<path d="M495.532 96.7173L493.451 90.5079L503.074 86.0277L501.149 76.5565L507.826 71.9976L505.548 68.6179L496.593 74.7094L498.439 83.6697L488.423 88.3464L491.565 97.6998L495.532 96.7173Z" fill="#33976D"/>
<path d="M572.373 82.6458L572.373 82.6466C577.57 90.591 576.652 100.083 572.086 107.201C567.52 114.318 559.35 118.998 550.097 117.368L550.095 117.368C546.547 116.756 542.89 117.574 539.773 119.478L539.772 119.478L529.285 125.924L529.284 125.924C526.637 127.557 523.291 126.86 521.64 124.309L521.638 124.307L517.594 118.139C517.594 118.139 517.594 118.138 517.593 118.138C515.929 115.566 516.465 111.992 518.875 109.908C520.328 108.666 521.658 107.555 522.874 106.541C525.591 104.272 527.731 102.486 529.372 100.783C531.78 98.2823 533.16 95.9172 533.809 92.4079C535.656 82.6689 542.719 76.2598 550.614 74.2706C558.505 72.2824 567.201 74.7114 572.373 82.6458Z" fill="#EDFDFC" stroke="#33976D"/>
<path d="M548.18 91.7095L548.402 91.5153L548.339 91.2271C548.144 90.3302 547.952 89.3695 547.837 88.414C547.616 85.7068 548.541 83.9725 549.702 83.0785C550.885 82.1676 552.324 82.1016 553.275 82.7146L553.279 82.7169C554.519 83.5006 555.095 85.3771 554.301 87.2902L554.3 87.2945C553.96 88.1355 553.398 88.8779 552.695 89.6053C552.138 90.182 551.511 90.7297 550.851 91.3069C550.672 91.4634 550.491 91.622 550.308 91.784L550.071 91.9931L550.158 92.2966C551.078 95.4955 552.517 98.4567 554.437 101.099L554.706 101.468L555.099 101.234C557.62 99.7236 559.703 99.4252 561.136 99.7725C562.55 100.115 563.358 101.083 563.456 102.261L563.456 102.263C563.593 103.842 562.55 105.534 561.006 106.201L561.006 106.201L561.002 106.203C560.539 106.409 559.702 106.656 558.618 106.449C557.538 106.243 556.158 105.574 554.626 103.852L554.329 103.519L553.965 103.776C549.576 106.867 544.532 110.694 540.582 113.751C538.607 115.28 536.904 116.618 535.693 117.575C535.087 118.054 534.604 118.438 534.272 118.704C534.232 118.735 534.195 118.765 534.16 118.793L533.295 117.6C533.34 117.564 533.388 117.526 533.439 117.485C533.77 117.223 534.25 116.843 534.852 116.368C536.056 115.42 537.749 114.094 539.711 112.577C543.637 109.543 548.639 105.745 552.971 102.666L553.381 102.375L553.088 101.967C551.312 99.4953 549.96 96.7904 548.993 93.8495L548.758 93.134L548.19 93.6285C543.207 97.9667 538.527 101.854 535.054 104.691C532.693 106.619 530.875 108.074 529.907 108.849C529.777 108.953 529.662 109.045 529.564 109.124L528.699 107.93C528.823 107.832 528.973 107.711 529.15 107.571C531.617 105.607 539.125 99.6326 548.18 91.7095ZM532.929 117.893C532.928 117.893 532.929 117.892 532.934 117.889C532.931 117.891 532.929 117.892 532.929 117.893ZM552.505 84.1639L552.416 83.9745L552.218 83.9052C551.579 83.6815 550.649 83.9389 550.037 84.8187C549.423 85.7016 549.134 87.1758 549.558 89.4595L549.719 90.3253L550.38 89.7436C551.502 88.7569 552.337 87.9616 552.728 87.111C553.152 86.1893 553.031 85.2784 552.505 84.1639ZM556.246 102.295L555.69 102.608L556.127 103.073C556.782 103.769 557.642 104.461 558.548 104.783C559.006 104.946 559.497 105.022 559.986 104.936C560.484 104.848 560.944 104.598 561.338 104.168L561.338 104.168C561.809 103.653 562.081 103.08 562.008 102.517C561.931 101.923 561.497 101.519 560.947 101.322C559.886 100.939 558.182 101.205 556.246 102.295Z" fill="#33976D" stroke="#33976D"/>
<path d="M523.138 106.312C525.091 104.682 526.744 103.304 528.121 102.013L539.604 119.582L529.285 125.924L529.284 125.924C526.637 127.557 523.291 126.86 521.64 124.309L521.638 124.307L517.594 118.139C517.594 118.139 517.594 118.138 517.593 118.138C515.929 115.566 516.465 111.991 518.876 109.908C520.432 108.569 521.85 107.386 523.138 106.312Z" fill="#33976D" stroke="#33976D"/>
<path d="M70.1933 425.029C70.1933 425.029 69.8398 423.379 69.8005 422.789C69.7219 422.121 69.6434 420.117 69.6434 420.117C69.6434 420.117 69.6434 413.161 70.154 413.2C70.6646 413.239 71.3323 414.418 71.4894 414.851C71.6466 415.283 71.8429 415.755 72 416.187C72.1571 416.619 72.5892 416.855 73.1391 416.698C73.689 416.541 73.4533 414.694 73.2569 414.065C72.6285 412.139 69.8398 407.305 69.6041 406.794C69.2899 406.165 71.4894 394.1 71.9215 389.895C72.8249 383.057 74.121 376.062 74.1996 375.315L86.3756 348.355L78.2452 340.024C78.2452 340.024 64.3016 369.774 63.7517 371.306C63.5161 372.053 62.6127 388.087 62.6127 388.087C62.6912 396.026 62.7698 402.982 62.7305 404.358C62.7305 404.358 61.5915 408.366 60.6881 410.842C59.824 413.357 59.9811 415.99 59.8632 416.737C59.824 416.855 59.2348 419.37 59.6669 422.514C60.0204 425.226 60.963 422.475 60.963 422.475C60.963 422.475 61.1987 417.287 61.5915 417.366C61.9057 417.445 61.5915 420.274 61.9842 423.261C62.0628 424.047 62.1807 424.794 62.2592 425.501C62.4949 427.348 63.7125 427.702 63.7517 425.737C63.7517 425.029 63.7518 423.89 63.6339 423.064C63.5161 422.161 63.6732 421.296 63.6732 420.549C63.6732 419.017 63.6732 417.916 63.7517 417.955C63.8303 417.995 64.0659 417.68 64.1838 418.506C64.3409 419.488 64.1838 421.65 64.5373 423.104C64.7337 423.929 65.0086 425.658 65.0086 425.658C65.0086 425.658 65.7942 428.409 65.9513 428.37C66.8547 428.331 66.8547 426.208 66.4619 425.147C66.5405 424.322 66.187 422.514 66.187 422.514C66.187 422.514 66.2655 418.702 66.8154 418.702C67.2475 418.702 68.8186 427.859 69.722 427.78C70.5468 427.82 70.1933 425.029 70.1933 425.029Z" fill="#F7A491"/>
<path d="M81.4269 364.036C81.4269 364.036 76.3601 363.171 73.6892 362.15C70.115 360.813 67.7583 359.634 67.7583 359.634C67.7583 359.634 71.6861 342.814 76.5958 332.596C78.6382 328.391 80.6807 326.347 83.5087 325.836C83.5087 325.836 89.5182 329.806 89.2825 339.316C89.2432 341.635 81.4269 364.036 81.4269 364.036Z" fill="url(#paint1_linear_3_4743)"/>
<path d="M96.9807 420.589L103.54 480.953C103.54 480.953 100.319 493.726 100.712 497.342C101.105 500.957 107.821 548.549 107.821 548.549L107.546 551.222V559.121H132.566C132.566 559.121 127.264 556.685 119.84 551.811C119.291 551.458 118.034 550.318 117.719 548.039C115.716 533.38 119.644 484.451 119.644 484.451L122.747 420.785L96.9807 420.589Z" fill="#F7A491"/>
<path d="M76.8705 433.283C75.4565 433.636 73.2962 485.551 72.1179 487.87C64.6944 502.45 62.9269 546.781 62.9269 546.781L60.7666 553.108L58.4492 560.85C58.4492 560.85 65.8727 562.894 69.7612 560.654L69.3292 553.03L68.9364 546.034L87.6719 490.778L97.9233 434.422L76.8705 433.283Z" fill="#F7A491"/>
<path d="M114.106 332.753C111.082 328.509 98.6306 316.168 97.2559 316.208C93.2103 316.286 79.9737 316.286 77.3813 317.623V320.531C77.4599 333.5 79.1095 346.43 82.3696 358.966C84.6477 367.73 86.808 377.044 86.533 380.424L86.6116 380.503C94.2708 388.127 106.368 387.537 113.36 379.166C113.36 379.166 113.32 369.852 114.42 361.403C116.07 348.08 121.608 343.325 114.106 332.753Z" fill="#33976D"/>
<path d="M93.1708 303.003C93.1708 303.003 93.5243 311.649 92.7781 314.95C92.0318 318.212 91.0106 318.487 97.4914 319.47C100.044 319.863 102.48 320.452 102.48 320.452C102.48 320.452 101.812 315.618 101.733 313.614C101.576 310.274 102.48 299.938 102.48 299.938L93.1708 303.003Z" fill="#F7A491"/>
<path d="M98.1199 307.326C99.4553 308.073 100.712 308.505 101.851 308.702C102.087 304.614 102.48 299.938 102.48 299.938L93.603 302.885C94.6242 304.654 96.0775 306.186 98.1199 307.326Z" fill="#F47458"/>
<path d="M95.2134 278.794C95.2134 278.794 91.5213 280.091 89.4789 284.178C87.4364 288.266 86.6902 299.702 94.7421 304.182C98.7092 306.383 103.305 306.815 105.504 304.889C107.704 302.885 107.429 298.484 107.232 294.789C106.761 287.48 105.151 276.476 95.2134 278.794Z" fill="#F7A491"/>
<path d="M89.2824 293.178C89.7538 295.104 89.1253 296.951 87.9077 297.305C86.6901 297.658 85.3546 296.401 84.8833 294.514C84.4119 292.589 85.0404 290.741 86.258 290.388C87.4757 289.995 88.8504 291.252 89.2824 293.178Z" fill="#F7A491"/>
<path d="M69.3294 552.99C65.9123 554.562 62.2594 553.58 60.7668 553.108L58.4102 560.89C58.4102 560.89 65.873 563.09 69.7615 560.89L69.3294 552.99Z" fill="url(#paint2_linear_3_4743)"/>
<path d="M107.311 561.086H133.313C134.255 561.007 134.491 560.182 134.177 559.671C133.509 558.65 130.445 557.903 127.028 556.252C121.058 556.92 108.489 552.637 107.546 551.222C106.997 554.091 106.761 560.929 107.311 561.086Z" fill="url(#paint3_linear_3_4743)"/>
<path d="M159.55 352.403C160.061 351.696 161.75 348.277 161.75 348.277C161.75 348.277 163.517 342.421 163.125 342.5C162.928 342.539 162.182 343.364 161.318 345.172C160.807 346.272 160.218 348.159 159.668 349.102C158.725 350.753 157.665 351.421 157.94 350.792C158.136 350.32 158.765 349.927 159.354 348.945C160.729 346.547 161.986 342.617 161.436 342.696C160.964 342.775 159.629 345.486 158.136 347.569C157.469 348.473 155.662 349.652 154.483 350.36C154.483 349.849 154.641 349.338 154.719 349.063C154.876 348.591 156.919 345.879 156.133 345.526C155.308 345.172 150.399 351.106 150.399 351.106L148.395 354.565L148.199 354.683C148.199 354.683 123.65 364.311 122.825 364.036C120.901 363.407 114.302 344.307 114.302 344.307L100.594 346.783C100.398 346.665 115.009 375.236 117.759 376.651C120.155 377.87 145.646 364.586 150.438 361.757C157.036 359.202 159.629 356.176 160.689 354.643C161.278 353.818 163.478 350.202 163.478 350.202C163.478 350.202 163.949 345.211 163.596 345.133C162.378 344.975 162.064 349.691 162.064 349.691C162.064 349.691 160.414 351.932 160.139 352.207C159.432 352.953 159.55 352.403 159.55 352.403Z" fill="#F8A492"/>
<path d="M91.757 327.683C89.8717 335.622 99.8875 353.346 99.8875 353.346C99.8875 353.346 114.106 346.43 116.62 343.443C116.62 343.443 106.8 327.212 106.211 326.151C104.915 323.871 100.28 319.155 97.1773 320.02C95.1742 320.57 91.757 327.683 91.757 327.683Z" fill="#33976D"/>
<path d="M93.9958 308.073C95.0563 300.802 107.154 285.947 102.48 279.737C98.7091 274.707 92.1105 276.2 87.9077 277.655C68.8973 284.218 69.997 308.112 63.9875 311.885C53.1076 318.684 46.3911 322.889 45.6056 338.176C44.6629 356.294 60.0598 365.569 78.5596 361.128C88.4969 358.73 91.1285 355.468 95.1348 346.076C96.9416 341.831 100.555 328.627 99.5733 322.181C98.7092 316.365 93.1317 313.928 93.9958 308.073Z" fill="#473B1E"/>
<path d="M101.223 294.711C101.223 296.872 100.437 298.601 99.4555 298.601C98.4735 298.601 97.688 296.833 97.688 294.711C97.688 292.549 98.4735 290.82 99.4555 290.82C100.437 290.82 101.223 292.549 101.223 294.711Z" fill="#F7A491"/>
<path d="M125.064 459.849L125.968 424.047C126.125 413.908 124.122 403.886 120.115 394.69L113.36 379.166C110.61 380.07 108.057 380.817 105.151 381.171C98.9055 381.878 92.7388 381.171 86.533 380.424C86.533 380.66 86.4937 380.896 86.4544 381.053C85.3154 386.319 79.0309 398.07 76.3993 414.143C73.3749 432.379 72.2751 459.653 72.6286 461.814C101.38 463.111 108.214 464.172 125.064 459.849Z" fill="#25282B"/>
<path d="M483.16 280.563L504.802 302.217C504.802 302.217 546.043 318.369 550.639 328.273C555.234 338.177 546.476 337.705 536.813 336.329C527.151 334.954 499.735 317.898 499.735 317.898L474.637 288.855L483.16 280.563Z" fill="#33976D"/>
<path d="M546.554 323.95L541.212 322.064L530.843 326.897C530.843 326.897 525.501 330.513 522.909 339.513C520.317 348.512 522.909 402.275 527.23 410.921C531.511 419.528 546.554 323.95 546.554 323.95Z" fill="#EDFDFC"/>
<path d="M580.569 539.51C580.569 539.51 584.379 541.947 584.693 543.087C585.007 544.226 587.796 556.449 586.736 557.864C585.675 559.278 581.865 558.61 583.358 559.632C584.497 560.418 591.724 561.007 596.359 559.75C597.694 559.396 597.105 547.96 597.301 546.231C597.576 543.716 599.344 537.978 598.283 536.484C597.772 535.738 594.787 534.48 592.117 533.419C589.289 532.318 586.186 529.214 586.186 529.214L580.569 539.51Z" fill="#F7A491"/>
<path d="M591.842 533.34C591.842 533.34 589.603 554.995 586.971 556.606C586.264 557.038 582.572 557.353 582.219 559.121C582.219 559.16 582.14 560.929 583.24 560.968L597.262 560.929C597.262 560.929 597.419 550.279 597.301 546.113C597.301 546.113 599.226 535.463 598.597 534.677C598.008 533.851 591.842 533.34 591.842 533.34Z" fill="#473B1E"/>
<path d="M635.479 539.51C635.479 539.51 639.289 541.947 639.603 543.087C639.917 544.226 642.706 556.449 641.646 557.864C640.585 559.278 636.775 558.61 638.268 559.632C639.407 560.418 646.634 561.007 651.269 559.75C652.604 559.396 652.015 547.96 652.211 546.231C652.486 543.716 654.254 537.978 653.193 536.484C652.683 535.738 649.698 534.48 647.027 533.419C644.199 532.318 641.096 529.214 641.096 529.214L635.479 539.51Z" fill="#F7A491"/>
<path d="M566.546 398.699C566.546 398.699 579.39 424.204 582.022 431.042L601.582 480.678L644.709 531.454C644.709 531.454 641.567 539.628 636.775 541.79C636.775 541.79 584.771 499.778 580.49 493.136C573.97 483.036 544.276 421.257 544.276 421.257L538.738 409.388L566.546 398.699Z" fill="#25282B"/>
<path d="M535.517 398.423L535.713 420.156C535.713 420.156 526.444 491.171 528.211 495.416C532.61 505.712 580.844 540.572 580.844 540.572L587.403 529.292L552.721 490.582L565.839 452.893C569.532 444.129 577.309 427.23 577.112 417.72C576.955 409.585 560.812 390.721 560.812 390.721L535.517 398.423Z" fill="#25282B"/>
<path d="M556.334 428.527C569.1 425.619 579.469 421.1 580.529 417.523C581.001 415.912 573.891 399.681 568.628 378.027C566.9 370.953 567.214 364.311 564.465 339.552C563.876 334.286 561.715 323.282 553.585 320.452C550.718 319.47 549.146 319.588 549.146 319.588C549.068 319.588 538.817 319.666 534.103 322.299C532.925 323.871 528.604 332.517 527.465 356.019C526.955 366.276 524.912 399.249 525.344 404.594C525.423 405.38 525.501 406.166 525.58 406.912C527.426 421.06 542.351 431.711 556.334 428.527Z" fill="#33976D"/>
<path d="M532.611 340.338C532.65 340.338 532.65 340.377 532.611 340.338C537.874 339.749 550.953 322.574 550.953 322.574L550.914 322.535L542.823 309.723C542.823 309.723 530.922 311.885 533.239 315.54C535.556 319.155 536.892 327.88 536.892 327.88C536.853 327.998 536.813 328.116 536.735 328.234C535.949 330.002 533.278 335.268 532.611 340.338Z" fill="#F7A491"/>
<path d="M533.278 315.54C530.961 311.924 542.862 309.723 542.862 309.723L543.53 310.784C543.53 311.688 543.451 312.514 543.176 313.221C541.88 316.837 538.777 320.059 535.596 321.592C535.006 319.352 534.221 317.033 533.278 315.54Z" fill="#FE875E"/>
<path d="M536.145 289.484C536.42 289.248 545.454 304.103 543.255 310.234C541.094 316.365 533.789 321.238 529.468 319.037C524.676 316.64 517.41 299.584 521.809 292.353C526.169 285.122 536.145 289.484 536.145 289.484Z" fill="#F7A491"/>
<path d="M523.066 282.803C528.368 281.663 537.874 283.235 543.215 287.008C549.775 291.645 550.01 299.859 547.065 305.204C544.119 310.588 545.886 314.518 545.886 314.518C545.886 314.518 536.656 313.928 534.771 307.64C533.985 305.007 534.967 303.2 533.2 301.706C531.825 300.566 530.686 297.226 529.311 294.554C529.311 294.554 523.341 291.37 521.063 294.003C520.277 294.907 516.232 284.257 523.066 282.803Z" fill="#473B1E"/>
<path d="M532.257 302.885C533.082 304.811 534.653 306.029 535.753 305.557C536.892 305.086 537.127 303.121 536.342 301.195C535.517 299.27 533.946 298.051 532.846 298.523C531.707 298.994 531.432 300.959 532.257 302.885Z" fill="#F7A491"/>
<path d="M646.83 533.34C646.83 533.34 644.513 554.995 641.881 556.567C641.174 556.999 637.482 557.313 637.129 559.082C637.129 559.121 637.011 560.968 638.15 560.929L652.172 560.89C652.172 560.89 652.329 550.239 652.251 546.074C652.251 546.074 654.175 535.423 653.547 534.637C652.958 533.851 646.83 533.34 646.83 533.34Z" fill="#473B1E"/>
<path d="M336.771 433.322C325.617 409.978 322.553 375.197 334.729 347.569C355.193 300.959 411.556 281.938 407.393 229.119C406.332 215.796 400.441 205.107 391.721 198.229C368.783 180.112 331.901 189.701 305.546 202.356C288.735 210.452 273.102 221.888 258.687 236.743L251.382 143.484C283 121.044 321.257 109.293 359.435 106.307C437.676 100.136 498.085 129.533 504.213 207.818C509.829 279.227 461.596 310.863 429.231 346.547C411.282 366.355 407.197 381.642 408.611 399.288C409.318 408.445 412.774 419.724 418.273 426.916L336.771 433.322ZM392.939 560.89C316.897 566.863 308.099 464.644 384.926 458.631C460.575 452.657 468.706 554.916 392.939 560.89Z" fill="#33976D"/>
<path d="M471.573 285.279C471.416 284.65 471.966 285.161 470.984 280.091C470.709 278.637 469.805 277.104 469.138 276.279C468.784 275.847 467.92 275.1 467.41 274.786C466.545 274.275 465.878 275.1 466.035 275.611C466.192 276.082 467.095 277.733 467.292 278.205C467.449 278.676 467.527 279.855 467.135 280.248C466.742 280.641 460.457 273.41 460.065 272.781C459.75 272.231 459.004 269.912 459.004 269.912C459.004 269.912 458.454 268.183 457.786 268.655C457.354 268.93 456.883 270.345 458.14 273.135C459.24 275.572 460.772 277.497 460.614 277.655C460.143 278.008 457.433 274.746 457.433 274.746C457.433 274.746 456.49 272.939 455.823 272.27C455.43 271.052 454.683 269.559 453.898 270.148C453.741 270.266 454.251 272.86 454.251 272.86C454.251 272.86 455.194 274.589 455.626 275.414C456.333 276.908 457.983 278.716 458.533 279.659C459.004 280.445 458.533 280.288 458.493 280.366C458.454 280.445 457.747 279.541 456.687 278.205C456.137 277.537 455.39 276.908 454.88 276.043C454.408 275.257 453.584 274.235 453.112 273.646C451.698 271.956 450.952 273.096 452.013 274.904C452.405 275.572 452.877 276.318 453.348 277.065C455.155 279.973 457.354 282.213 457.158 282.488C456.883 282.842 453.073 278.48 453.073 278.48C453.073 278.48 450.402 276.672 451.973 279.305C453.819 282.371 455.823 284.296 455.94 284.414C456.569 284.964 458.258 287.558 460.732 289.13C463.207 290.702 467.213 293.099 467.213 293.099C467.684 293.65 468.863 295.457 470.473 298.012L476.483 290.781C474.283 288.501 471.691 285.75 471.573 285.279Z" fill="#F8A492"/>
<path d="M466.86 295.457L475.147 288.187L503.624 316.286C503.624 316.286 547.693 320.138 547.811 320.177L549.579 320.727C565.565 326.269 559.005 339.316 555.902 341.321C548.715 346.037 508.848 343.207 496.082 335.268C485.595 328.823 466.86 295.457 466.86 295.457Z" fill="#33976D"/>
<path d="M170.116 335.779C170.43 336.958 170.627 337.351 171.019 338.137C173.612 343.207 179.66 350.438 179.66 350.438L184.334 339.198C184.334 339.198 183.588 335.661 182.253 330.631C177.736 331.849 173.415 332.596 170.116 335.779Z" fill="#F8A492"/>
<path d="M196.903 326.033C196.903 326.033 170.823 338.019 169.998 337.784C169.448 337.626 159.315 319.47 159.197 302.413C159.157 294.514 166.817 285.043 175.379 286.929C179.7 287.872 179.621 289.169 185.984 299.034C192.347 308.937 196.903 326.033 196.903 326.033Z" fill="#33976D"/>
<path d="M219.174 541.043C219.174 541.043 218.546 551.968 218.546 552.008C218.31 553.383 217.406 556.842 217.406 558.099C217.406 562.855 238.498 554.091 233.785 551.969C233.353 551.772 231.114 550.357 230.957 548.707C230.722 546.231 230.172 541.2 230.172 541.2L219.174 541.043Z" fill="#F7A491"/>
<path d="M233.707 551.89C233.707 551.89 228.758 553.344 226.205 553.698C223.652 554.051 220.313 551.025 218.545 551.851C216.582 552.754 216.66 560.929 216.66 560.929C216.66 560.929 243.212 563.248 250.675 560.85C253.66 559.868 243.84 555.27 233.707 551.89Z" fill="#473B1E"/>
<path d="M176.047 541.043C176.047 541.043 175.419 551.968 175.419 552.008C175.183 553.383 174.28 556.842 174.28 558.099C174.28 562.855 195.372 554.091 190.658 551.969C190.226 551.772 187.32 549.257 187.202 547.646C186.966 545.17 187.084 541.2 187.084 541.2L176.047 541.043Z" fill="#F7A491"/>
<path d="M190.58 551.89C190.58 551.89 185.631 553.344 183.078 553.698C180.525 554.051 177.186 551.025 175.418 551.851C173.455 552.754 173.376 560.929 173.376 560.929C173.376 560.929 200.046 563.641 207.548 560.85C210.454 559.75 200.713 555.27 190.58 551.89Z" fill="#473B1E"/>
<path d="M182.489 341.831L201.067 314.046C201.145 313.811 201.303 313.3 201.578 312.553C202.52 309.802 204.445 304.064 206.173 298.366V298.287C206.723 296.283 207.823 292.824 208.922 289.445C210.14 285.711 211.633 281.074 211.711 280.288C211.672 280.17 211.593 279.895 211.476 279.58C210.808 277.694 209.865 273.214 209.551 271.249C209.355 269.991 209.119 266.965 210.533 266.965C212.693 266.965 211.672 269.991 212.693 271.877C213.047 270.62 213.793 268.105 214.186 265.589L214.539 259.694C214.618 259.262 214.146 256 215.678 256H215.757C217.132 256.118 217.092 259.577 217.681 265.432C217.878 264.764 218.035 263.939 218.192 263.192C218.192 262.799 218.467 261.031 218.663 260.087C218.388 258.437 218.546 255.882 220.195 256.118C221.02 256.236 220.942 259.852 220.942 259.852C220.942 260.362 220.902 264.135 220.902 264.882C221.059 263.624 221.727 258.162 222.984 258.162C224.044 258.162 224.123 259.616 224.123 260.795C224.123 261.463 223.455 267.358 223.416 268.065C223.927 267.161 224.516 261.974 224.987 261.974C227.069 261.974 226.323 269.362 225.537 271.288C225.458 271.484 225.38 271.877 225.301 272.31C225.026 273.607 224.594 275.807 223.534 277.812C222.238 280.17 220.431 283.943 220.156 284.532C219.96 285.711 219.331 289.955 218.546 295.261C218.192 297.54 217.839 300.056 217.446 302.61H217.407C217.328 303.16 216.935 304.968 215.482 311.61C213.479 320.767 213.282 321.16 213.164 321.317C212.3 322.967 192.269 352.01 191.405 353.228L190.894 353.975L182.489 341.831Z" fill="#F7A491"/>
<path d="M217.014 277.065C217.014 277.065 215.521 272.938 212.811 272.938C212.811 272.938 214.304 272.349 215.6 273.449C216.896 274.51 217.014 277.065 217.014 277.065Z" fill="#F47458"/>
<path d="M177.972 269.087L175.576 285.239C175.576 285.239 184.688 293.06 189.991 291.409C194.429 290.034 191.405 283.825 191.405 283.825C191.405 283.825 189.048 275.218 189.755 270.698C190.501 266.14 177.972 269.087 177.972 269.087Z" fill="#F7A491"/>
<path d="M179.7 274C181.978 275.139 186.495 276.711 189.991 277.104C189.637 274.864 189.48 272.467 189.755 270.698C190.108 268.616 187.595 268.105 184.845 268.183C181.232 268.498 177.972 269.126 177.972 269.126L177.5 272.231C178.207 272.978 178.954 273.607 179.7 274Z" fill="#FE875E"/>
<path d="M166.503 250.498C166.11 250.498 170.116 268.537 176.243 271.642C182.41 274.746 191.562 273.135 193.29 268.262C195.175 262.878 188.262 244.485 179.582 242.167C170.941 239.809 166.503 250.498 166.503 250.498Z" fill="#F7A491"/>
<path d="M173.612 233.914C168.702 236.94 166.424 241.42 165.678 243.267C163.36 244.446 160.571 246.961 159.236 253.76C157.586 262.131 163.439 268.616 169.645 270.541C175.85 272.467 176.911 276.868 176.911 276.868L177.539 272.152C177.539 272.152 176.165 268.026 174.083 265.982C172.001 263.939 175.065 260.913 175.34 258.476C175.536 256.59 174.24 252.935 174.515 249.83C174.515 249.83 177.972 244.249 181.349 242.874C187.163 240.555 179.935 230.023 173.612 233.914Z" fill="#473B1E"/>
<path d="M176.243 261.62C177.029 263.703 176.715 265.786 175.497 266.258C174.279 266.729 172.669 265.432 171.844 263.349C171.059 261.266 171.373 259.183 172.591 258.712C173.808 258.24 175.419 259.537 176.243 261.62Z" fill="#F7A491"/>
<path d="M199.142 342.303L234.964 336.054C234.964 336.054 230.879 325.09 229.425 325.09C227.972 325.09 202.324 337.037 202.324 337.037L200.281 341.399L199.142 342.303Z" fill="#F8A492"/>
<path d="M180.799 368.516C180.799 368.516 177.225 386.948 178.678 400.939C180.132 414.929 180.25 464.605 180.25 464.605L174.711 544.109L187.909 544.423C187.909 544.423 203.541 464.958 203.266 467.002C202.991 469.046 208.49 411.039 208.49 411.039L189.833 366.748L180.799 368.516Z" fill="#25282B"/>
<path d="M184.295 367.652C184.295 367.652 181.978 384.275 184.884 391.546C187.791 398.816 209.865 470.303 210.14 476.159C210.415 481.975 217.76 546.427 217.76 546.427L233.078 545.956L236.378 474.351L229.425 384.315L222.67 361.56L184.295 367.652Z" fill="#25282B"/>
<path d="M175.615 285.239C175.615 285.239 179.385 287.873 182.92 287.597C186.455 287.283 191.444 283.825 191.444 283.825L190.737 281.309C190.737 281.309 181.624 279.895 181.389 280.052C181.153 280.17 175.615 285.239 175.615 285.239Z" fill="#F7A491"/>
<path d="M215.875 324.579C215.875 324.579 229.425 338.216 235.553 335.897C241.68 333.578 244.194 325.6 229.268 313.928C215.914 303.475 215.875 324.579 215.875 324.579Z" fill="#F8A492"/>
<path d="M225.066 341.438C223.063 329.727 208.451 293.335 207.312 286.654C206.762 283.392 198.867 283.314 191.365 283.746C183.431 284.178 175.576 285.279 175.576 285.279C175.576 285.279 168.584 286.497 165.481 289.602C162.378 292.707 161.593 301.235 165.992 317.426C169.488 330.199 173.847 337.233 175.968 346.547C176.401 349.652 176.793 352.757 177.265 356.372C178.05 370.285 177.265 388.716 177.265 388.716C177.265 388.716 215.403 397.166 229.701 384.354C229.74 384.275 227.147 353.386 225.066 341.438Z" fill="#33976D"/>
<path d="M234.807 316.286C234.807 316.286 219.842 329.491 218.978 329.491C218.428 329.491 197.611 313.142 192.819 299.741C190.148 292.313 195.725 284.021 202.088 284.06C206.487 284.06 208.451 285.279 217.21 293.178C225.969 301.077 234.807 316.286 234.807 316.286Z" fill="#33976D"/>
<path d="M463.482 54.6663L431.038 76.635C427.739 78.8751 423.261 78.0105 421.022 74.7093L399.066 42.2475C396.827 38.9463 397.691 34.4661 400.991 32.226L433.434 10.2573C436.733 8.01721 441.211 8.8818 443.45 12.183L465.406 44.6448C467.645 47.946 466.781 52.4262 463.482 54.6663Z" fill="#33976D"/>
<path d="M447.181 31.6365C452.877 40.0467 450.677 51.483 442.272 57.1422C433.866 62.8407 422.436 60.6399 416.78 52.2297C411.085 43.8195 413.285 32.3832 421.69 26.724C430.056 21.0255 441.486 23.2263 447.181 31.6365Z" fill="white"/>
<path d="M425.932 34.3482L433.474 42.5619C434.023 43.1514 433.984 44.0946 433.395 44.6448C432.806 45.195 431.863 45.1557 431.313 44.5662C431.235 44.4876 431.156 44.3697 431.078 44.2518L425.932 34.3482Z" fill="#33976D"/>
<path d="M431.667 42.6405L443.018 36.2739L433.12 44.7234C432.57 45.195 431.784 45.1164 431.313 44.5662C430.842 44.016 430.92 43.23 431.47 42.7584C431.51 42.7584 431.588 42.6798 431.667 42.6405Z" fill="#33976D"/>
<path d="M143.525 232.538H77.7738C65.9119 232.538 56.3281 222.91 56.3281 211.08V197.443C56.3281 185.575 65.9512 175.985 77.7738 175.985H143.525C155.387 175.985 164.97 185.614 164.97 197.443V211.08C164.97 222.949 155.387 232.538 143.525 232.538Z" fill="#33976D"/>
<path d="M152.088 211.198L178.836 223.185L160.925 198.111L152.088 211.198Z" fill="#33976D"/>
<path d="M92.5032 202.434C92.5032 204.753 90.4214 206.6 87.8291 206.6C85.2368 206.6 83.155 204.753 83.155 202.434C83.155 200.116 85.2368 198.269 87.8291 198.269C90.4214 198.269 92.5032 200.155 92.5032 202.434Z" fill="white"/>
<path d="M114.302 202.434C114.302 204.753 112.221 206.6 109.628 206.6C107.036 206.6 104.954 204.753 104.954 202.434C104.954 200.116 107.036 198.269 109.628 198.269C112.221 198.269 114.302 200.155 114.302 202.434Z" fill="white"/>
<path d="M136.141 202.434C136.141 204.753 134.059 206.6 131.467 206.6C128.874 206.6 126.793 204.753 126.793 202.434C126.793 200.116 128.874 198.269 131.467 198.269C134.02 198.269 136.141 200.155 136.141 202.434Z" fill="white"/>
<path d="M388.658 11.1219L384.259 1.68991L387.911 0L390.425 5.30551L396.513 1.61131L398.634 5.10901L388.658 11.1219Z" fill="#33976D"/>
<path d="M139.047 146.432L129.267 149.93L127.892 146.117L133.43 144.152L130.367 137.707L134.02 135.939L139.047 146.432Z" fill="#33976D"/>
<path d="M544.394 51.6795C545.14 53.9982 545.847 56.3169 546.554 58.6356C547.104 60.4434 547.536 63.3909 549.304 64.4127C549.736 64.6485 550.482 64.5699 550.678 64.059C551.543 62.1333 550.286 59.6574 549.697 57.771C548.95 55.4523 548.204 53.1336 547.497 50.8149C546.869 48.8499 543.766 49.6752 544.394 51.6795Z" fill="#33976D"/>
<path d="M568.903 49.1643C565.132 61.9761 565.133 61.5831 565.407 62.88C565.643 63.9018 567.018 64.2162 567.725 63.4695C568.589 62.5656 568.393 62.8407 572.006 49.9896C572.517 48.0246 569.492 47.1993 568.903 49.1643Z" fill="#33976D"/>
<path d="M583.2 77.6961C585.4 76.635 587.639 75.5739 589.838 74.5128C591.802 73.5696 594.355 72.8229 595.691 71.0151C596.28 70.2291 595.455 69.2073 594.63 69.168C592.431 69.0894 590.113 70.7793 588.228 71.7225C586.028 72.7836 583.829 73.8447 581.629 74.9451C579.744 75.8097 581.354 78.5607 583.2 77.6961Z" fill="#33976D"/>
<path d="M575.973 116.171C578.251 119.079 580.53 122.105 583.083 124.778C584.457 126.232 586.461 124.109 585.243 122.616C582.847 119.747 580.412 116.957 578.134 114.049C576.916 112.516 574.795 114.638 575.973 116.171Z" fill="#33976D"/>
<path d="M584.3 101.237C586.343 102.141 588.424 102.966 590.506 103.791C592.391 104.538 594.67 105.874 596.712 105.56C597.812 105.403 597.93 103.949 597.301 103.28C596.516 102.416 596.123 102.494 591.606 100.765C589.563 99.9792 587.56 99.1539 585.478 98.3679C583.868 97.7391 582.69 100.529 584.3 101.237Z" fill="#33976D"/>
<defs>
<linearGradient id="paint0_linear_3_4743" x1="0.000230506" y1="563.273" x2="732.839" y2="563.273" gradientUnits="userSpaceOnUse">
<stop stop-color="white"/>
<stop offset="1" stop-color="white"/>
</linearGradient>
<linearGradient id="paint1_linear_3_4743" x1="75.3229" y1="312.736" x2="82.7165" y2="396.001" gradientUnits="userSpaceOnUse">
<stop stop-color="#C9CD55"/>
<stop offset="0.9999" stop-color="#D7EF41"/>
<stop offset="1" stop-color="#287F50"/>
</linearGradient>
<linearGradient id="paint2_linear_3_4743" x1="58.3963" y1="557.436" x2="69.743" y2="557.436" gradientUnits="userSpaceOnUse">
<stop stop-color="#FB9A2B"/>
<stop offset="1" stop-color="#E65925"/>
</linearGradient>
<linearGradient id="paint3_linear_3_4743" x1="106.998" y1="556.141" x2="134.315" y2="556.141" gradientUnits="userSpaceOnUse">
<stop stop-color="#FB9A2B"/>
<stop offset="1" stop-color="#E65925"/>
</linearGradient>
</defs>
</svg>
