<svg width="544" height="517" viewBox="0 0 544 517" fill="none" xmlns="http://www.w3.org/2000/svg">
<g clip-path="url(#clip0_3_4482)">
<path opacity="0.08" d="M298.742 471.517C308.01 470.538 317.278 469.506 326.545 468.474C357.14 465.05 387.734 462.876 418.44 460.811C440.214 459.344 462.099 458.529 483.872 460.703C502.575 462.605 525.186 466.354 539.59 480.483C547.685 488.417 544.224 498.415 532.332 505.154C519.77 512.272 503.747 512.49 489.846 513.468C358.982 522.815 228.844 510.533 97.9247 511.077C79.3894 511.131 60.575 512.327 42.0955 513.142C30.8738 513.631 16.2466 515.696 5.19238 512.707C-1.78628 510.805 -1.28381 504.284 4.01996 500.861C13.7342 494.666 28.3057 493.959 39.3599 493.253C68.2236 491.405 97.0873 489.395 125.895 487.167C183.567 482.711 241.183 477.494 298.742 471.517Z" fill="black"/>
<path d="M392.033 183.89L393.484 172.804L398.341 173.239L399.067 181.118L401.468 180.249L399.011 189.596L393.931 189.759L392.033 183.89Z" fill="#EBCEB1"/>
<path d="M421.79 253.066C429.159 253.718 437.534 253.392 442.391 247.958C446.355 243.556 446.689 237.035 445.405 231.329C445.238 230.677 445.07 229.971 444.456 229.591C443.954 229.264 443.228 229.264 442.614 229.319C436.082 229.808 429.55 230.297 423.018 230.786C419.333 231.058 412.02 233.068 410.01 230.243C407.777 227.091 407.721 219.32 406.995 215.625C404.985 205.952 402.975 196.334 400.965 186.661L390.86 187.531C390.972 196.443 391.084 205.3 391.139 214.212C391.195 220.57 391.307 226.928 391.363 233.286C391.53 250.24 407.553 251.816 421.79 253.066Z" fill="#C9D3DB"/>
<path d="M464.499 233.938C470.473 238.394 473.041 246.328 474.549 253.718C480.634 284.04 477.563 315.286 474.325 346.043C473.99 349.467 473.097 350.988 469.691 349.467C448.309 340.174 427.317 328.219 403.925 326.752C409.787 307.461 410.401 287.083 414.365 267.303C415.537 261.597 416.989 255.837 419.501 250.566C422.795 243.665 428.043 236.166 433.849 231.058C439.32 226.222 448.03 228.341 454.562 229.971C457.297 230.623 460.033 231.33 462.489 232.634C463.215 233.014 463.885 233.449 464.499 233.938Z" fill="#C9D3DB"/>
<path d="M179.882 247.795L185.8 249.425L190.545 246.817L191.662 247.469L190.824 248.827L195.402 247.686L198.864 249.316L199.701 254.098L197.189 258.554L192.108 258.88L186.693 256.326L178.43 254.424L179.882 247.795Z" fill="#EBCEB1"/>
<path d="M182.562 244.752L122.936 230.514C120.87 230.025 118.414 227.797 116.627 226.765C112.384 224.211 108.141 221.711 103.898 219.157C100.995 217.418 95.9147 213.017 92.3974 213.017C86.647 213.017 83.6322 221.331 83.5764 225.787C83.4647 239.481 96.5846 245.349 106.411 252.686L115.846 257.468L182.003 258.772L182.562 244.752Z" fill="#C9D3DB"/>
<path d="M110.43 174.271C102.837 176.717 94.742 171.337 87.3726 174.923C82.6271 177.26 79.389 183.075 78.6074 188.998C78.2166 191.769 78.3841 194.595 79.389 197.04C80.0589 198.616 81.0639 199.92 82.1805 201.007C83.6878 202.474 85.4744 203.616 87.3726 204.322C86.6468 206.278 85.7535 208.235 84.7486 210.028C88.4892 210.734 92.2297 211.386 95.9703 212.093C96.4727 209.593 96.9194 207.148 97.4218 204.648C98.4826 204.322 99.5433 203.887 100.492 203.344C106.522 200.029 110.933 192.53 111.379 184.922C111.602 181.227 111.044 177.749 110.43 174.271Z" fill="#EBCEB1"/>
<path d="M71.9638 190.085C71.6288 189.541 71.3497 188.998 71.0705 188.454C67.7208 181.716 65.8784 173.728 70.903 167.207C75.9835 160.577 86.3677 157.643 94.2955 159.654C98.6501 160.74 103.284 162.208 107.583 160.849C108.867 160.414 110.095 159.762 110.821 158.621C111.491 157.589 111.658 156.285 112.384 155.306C114.003 152.915 118.47 153.513 119.419 156.176C119.698 156.991 119.698 157.86 120.144 158.567C121.093 160.197 123.382 160.251 125.281 160.469C125.895 160.523 126.565 160.686 126.9 161.175C127.626 161.99 126.956 163.349 125.951 163.892C124.611 164.653 122.266 164.436 121.428 165.903C120.814 166.935 121.763 169 121.596 170.196C121.038 174.434 117.297 178.293 113.277 179.76C109.481 181.173 106.02 179.651 102.223 178.673C101.162 178.401 99.99 177.749 98.9293 177.586C97.5894 177.423 96.3053 178.021 95.0212 178.293C93.458 178.619 91.7831 178.456 90.1641 178.293C88.5451 178.184 86.8702 178.13 85.3628 178.727C83.8554 179.325 82.5713 180.738 82.683 182.314C82.7946 184.216 84.8045 185.737 84.7487 187.639C84.6928 189.324 83.1854 190.574 82.5713 192.095C82.0689 193.291 82.0689 194.704 81.1198 195.682C80.729 196.116 80.1707 196.334 79.7799 196.823C79.2774 197.421 79.1657 198.236 78.4958 198.67C77.77 199.105 76.7651 198.779 76.2068 198.127C75.6485 197.475 75.4252 196.66 75.146 195.899C74.4203 193.725 73.0804 191.932 71.9638 190.085Z" fill="#333333"/>
<path d="M86.3119 209.158C84.637 208.995 82.7946 208.832 81.3431 209.647C80.0032 210.354 79.2216 211.712 78.4958 212.962C59.5139 246.654 51.307 285.725 55.1592 323.709C77.77 319.742 100.772 318.003 123.773 318.492C121.652 303.712 119.586 288.931 117.465 274.15C115.901 263.228 114.394 252.359 111.826 241.6C109.593 232.199 106.522 222.961 102.782 213.995C100.381 208.397 91.6715 209.702 86.3119 209.158Z" fill="#C9D3DB"/>
<path d="M135.442 491.297L139.852 495.318C142.699 497.926 142.03 502.6 138.456 504.121C136.335 504.991 133.376 504.882 129.3 502.165L119.921 491.786L121.429 488.417L134.995 486.406L135.442 491.297Z" fill="#1A1A1A"/>
<path d="M126.23 314.96L148.059 401.851L141.639 486.895L120.089 488.688L115.12 412.013C115.12 412.013 67.8325 328.002 70.5123 326.154C73.248 324.361 126.23 314.96 126.23 314.96Z" fill="#33976D"/>
<path d="M68.614 491.296L73.0245 495.318C75.8718 497.872 75.2577 502.599 71.6846 504.121C69.5631 505.045 66.6042 504.882 62.5286 502.165L53.0935 491.786V486.895L56.6666 483.852L67.0508 485.699L68.614 491.296Z" fill="#1A1A1A"/>
<path d="M111.323 320.449L104.568 409.676L72.7454 488.199L50.3579 483.852L69.954 409.405C69.954 409.405 51.5862 315.286 54.7684 314.362C57.8949 313.493 111.323 320.449 111.323 320.449Z" fill="#33976D"/>
<path d="M53.0935 317.025L61.5237 297.082L91.0574 287.572L85.4186 251.164L114.841 246.545L119.977 297.734L127.179 318.655L56.0525 331.317L53.0935 317.025Z" fill="#33976D"/>
<path d="M87.0376 235.296C87.0934 229.699 86.8143 223.287 82.3479 219.646C81.343 218.831 80.1148 218.179 78.8307 218.179C76.1509 218.179 74.3643 220.733 73.0244 222.961C72.5778 219.646 72.3545 215.951 74.3643 213.18C76.9325 209.702 82.4596 209.267 86.256 211.495C89.9965 213.723 92.118 217.962 92.9555 222.146C93.7371 226.384 93.4579 230.677 93.4021 234.97C93.4021 241.22 94.0721 247.469 94.742 253.664C92.1739 253.501 89.6616 253.99 87.1492 254.098C85.6419 248.664 86.9817 241.111 87.0376 235.296Z" fill="#33976D"/>
<path d="M106.913 229.482C106.299 224.048 104.903 218.07 100.325 215.027C99.1527 214.266 97.7011 213.451 97.7569 212.093C97.8128 211.278 98.4269 210.626 99.0968 210.245C101.442 208.941 104.624 210.082 106.355 212.093C108.085 214.158 108.699 216.82 109.202 219.429C111.268 229.754 112.496 240.241 112.887 250.729C112.942 252.305 108.979 251.436 108.309 250.729C107.248 249.588 107.806 246.817 107.806 245.404C107.806 240.078 107.527 234.753 106.913 229.482Z" fill="#33976D"/>
<path d="M450.709 472.223L449.816 478.038L451.882 489.069L458.525 488.471L459.809 472.06L458.804 469.452L450.709 472.223Z" fill="#514943"/>
<path d="M419.333 488.199L408.893 495.644L410.233 501.241L429.327 496.785L427.819 488.743L419.333 488.199Z" fill="#514943"/>
<path d="M398.788 341.642L399.123 418.1L416.598 489.884H430.89L429.997 406.634L438.594 343.707L432.286 331.208L400.63 334.74L398.788 341.642Z" fill="#33976D"/>
<path d="M434.91 397.885L449.816 470.919L462.824 469.452L466.397 412.448L473.041 350.064L466.341 331.806H430.052L434.91 397.885Z" fill="#33976D"/>
<path d="M469.468 207.909C468.128 195.41 451.826 187.802 444.847 200.518C442.782 204.322 441.107 208.506 440.995 212.854C440.883 217.201 442.614 221.711 446.131 224.265C446.131 224.265 446.187 224.265 446.187 224.32C445.796 225.352 445.406 226.439 445.015 227.471C444.903 227.689 444.847 227.96 444.959 228.178C445.071 228.449 445.35 228.558 445.629 228.667C446.913 229.156 448.141 229.591 449.425 230.08C450.039 230.297 450.709 230.569 451.379 230.46C452.831 230.297 453.78 228.83 454.115 227.417C454.227 227.091 454.282 226.765 454.338 226.385C462.601 225.298 470.361 216.06 469.468 207.909Z" fill="#EACDB0"/>
<path d="M389.185 68.0348C385.445 78.6857 391.307 90.2059 402.194 93.8468C413.136 97.4876 424.972 91.7818 428.712 81.1853C432.453 70.5345 426.591 59.0142 415.704 55.3734C404.818 51.7325 392.926 57.384 389.185 68.0348ZM402.026 72.2734C403.366 68.5239 407.553 66.5133 411.405 67.8175C415.258 69.1217 417.323 73.1972 415.983 76.9468C414.643 80.6963 410.456 82.7069 406.604 81.4027C402.752 80.0985 400.686 76.023 402.026 72.2734Z" fill="#33976D"/>
<path d="M344.075 64.0137C343.35 68.2523 343.071 72.4909 343.182 76.6751L332.351 80.316L335.869 97.7051L347.314 97.053C348.821 101.02 350.775 104.824 353.064 108.41L345.583 116.833L357.586 130.147L367.133 124.006C370.427 126.669 374.056 129.06 377.964 131.07L375.786 141.993L393.038 147.699L398.174 137.754C402.529 138.461 406.883 138.733 411.182 138.624L414.923 149.166L432.788 145.743L432.118 134.603C436.194 133.135 440.102 131.233 443.786 129.005L452.44 136.342L466.118 124.658L459.809 115.366C462.545 112.16 465.002 108.628 467.067 104.824L478.289 106.943L484.151 90.1517L473.934 85.1523C474.66 80.9137 474.939 76.6751 474.828 72.4909L485.658 68.85L482.141 51.4609L470.64 52.113C469.133 48.1461 467.179 44.3422 464.89 40.7557L472.427 32.3329L460.424 19.0193L450.877 25.1599C447.583 22.4972 443.954 20.1062 440.046 18.0955L442.223 7.17301L424.972 1.41287L419.836 11.3573C415.481 10.6508 411.126 10.3791 406.828 10.4878L403.087 0L385.222 3.42348L385.892 14.5634C381.816 16.0306 377.908 17.9325 374.223 20.1605L365.57 12.8245L351.892 24.5078L358.2 33.8001C355.465 37.0062 353.008 40.5384 350.942 44.3422L339.721 42.2229L333.859 59.0143L344.075 64.0137ZM458.414 86.4565L424.414 75.1536C424.637 70.0999 422.181 65.2635 417.938 62.3291L429.55 29.2354C452.105 38.9081 464.332 63.0899 458.414 86.4565ZM408.391 89.5539C413.583 89.7713 418.552 87.3803 421.566 83.2504L455.566 94.5533C445.629 116.561 420.785 128.462 396.778 122.702L408.391 89.5539ZM406.604 81.3484C402.752 80.0443 400.686 75.9687 402.026 72.2192C403.366 68.4696 407.553 66.459 411.406 67.7632C415.258 69.0674 417.323 73.143 415.984 76.8925C414.644 80.642 410.456 82.6526 406.604 81.3484ZM359.54 62.7095L393.54 74.0124C393.317 79.0661 395.773 83.9025 400.016 86.8369L388.404 119.931C365.849 110.258 353.622 86.0218 359.54 62.7095ZM362.387 54.6127C372.325 32.6046 397.169 20.7039 421.176 26.4641L409.563 59.5577C404.371 59.3403 399.402 61.7313 396.387 65.8613L362.387 54.6127Z" fill="#33976D"/>
<path d="M352.729 55.9167C363.281 25.7032 397.113 9.50956 428.154 19.8343C459.195 30.1048 475.833 63.0354 465.225 93.249C454.673 123.463 420.841 139.656 389.8 129.331C358.814 119.061 342.177 86.1303 352.729 55.9167ZM355.074 56.7319C344.969 85.6413 360.88 117.213 390.581 127.049C420.282 136.885 452.719 121.398 462.824 92.4882C472.929 63.5788 457.018 32.0067 427.317 22.171C397.616 12.2809 365.235 27.7681 355.074 56.7319Z" fill="#33976D"/>
<path d="M358.535 67.9805C355.52 89.6082 367.579 110.964 388.459 119.876L392.535 108.193C394.936 110.203 397.336 112.16 399.793 114.007L396.778 122.648C402.584 124.06 408.446 124.386 414.085 123.843C420.785 127.973 427.205 131.396 432.955 134.168C432.62 134.277 432.341 134.44 432.006 134.548L432.676 145.688L414.811 149.112L411.07 138.569C406.771 138.732 402.417 138.406 398.062 137.7L392.926 147.644L375.73 142.047L377.908 131.125C374 129.114 370.371 126.723 367.077 124.06L357.53 130.201L345.583 116.833L353.12 108.41C350.831 104.824 348.877 101.02 347.369 97.053L335.924 97.705L332.407 80.3159L343.238 76.6751C343.07 72.4908 343.405 68.2522 344.131 64.0136L333.914 59.0143L339.776 42.2229L347.425 43.6901C350.44 52.4933 354.236 60.5902 358.535 67.9805Z" fill="#33976D"/>
<path d="M354.125 59.775C346.141 87.8149 361.941 117.485 390.637 126.995C401.133 130.473 411.908 130.799 422.013 128.462C423.074 129.06 424.134 129.603 425.139 130.201C413.918 133.298 401.691 133.244 389.855 129.331C359.038 119.115 342.4 86.5108 352.561 56.4602C353.064 57.6014 353.566 58.6882 354.125 59.775Z" fill="#33976D"/>
<path d="M437.757 16.737C437.813 16.9543 439.934 7.98808 439.934 7.98808L426.144 3.47778C426.088 3.53212 435.189 8.20545 437.757 16.737Z" fill="#33976D"/>
<path d="M235.599 219.755L227.783 223.559C228.174 226.439 228.676 229.319 229.346 232.145C230.016 235.025 230.798 237.796 231.691 240.568L240.401 240.785C250.338 241.057 256.089 251.816 250.673 259.859L245.872 266.977C249.445 271.596 253.52 275.889 258.043 279.802L265.747 275.726C274.456 271.107 285.008 277.628 284.45 287.301L283.947 295.778C289.475 298.06 295.225 299.854 301.031 301.049L305.609 293.767C310.801 285.507 323.251 286.051 327.718 294.691L331.626 302.299C334.585 301.918 337.543 301.429 340.447 300.777C343.406 300.125 346.253 299.364 349.1 298.495L349.323 290.018C349.603 280.345 360.657 274.748 368.92 280.019L376.233 284.692C380.979 281.215 385.389 277.248 389.409 272.846L385.222 265.347C380.476 256.87 387.176 246.599 397.113 247.143L405.823 247.632C408.167 242.252 410.01 236.655 411.238 231.004L403.757 226.548C395.271 221.494 395.829 209.376 404.706 205.029L412.522 201.225C412.131 198.345 411.629 195.465 410.959 192.639C410.289 189.759 409.507 186.987 408.614 184.216L399.905 183.999C389.967 183.727 384.217 172.967 389.632 164.925L394.433 157.806C390.86 153.187 386.785 148.894 382.263 144.982L374.558 149.057C365.849 153.676 355.297 147.155 355.855 137.483L356.358 129.006C350.831 126.723 345.08 124.93 339.274 123.734L334.696 131.016C329.504 139.276 317.054 138.733 312.588 130.092L308.68 122.485C305.721 122.865 302.762 123.354 299.859 124.006C296.9 124.658 294.052 125.419 291.205 126.288L290.982 134.766C290.703 144.438 279.649 150.035 271.386 144.764L264.072 140.091C259.327 143.569 254.916 147.536 250.897 151.937L255.084 159.436C259.829 167.914 253.13 178.184 243.192 177.641L234.483 177.152C232.138 182.531 230.296 188.129 229.067 193.78L236.548 198.236C244.979 203.29 244.476 215.408 235.599 219.755ZM312.699 202.964C312.42 203.181 312.085 203.398 311.806 203.67C311.415 204.05 311.025 204.431 310.69 204.811L273.786 199.377C277.471 186.987 286.404 176.337 298.575 170.413C301.645 168.946 305.33 170.631 306.056 173.891L312.699 202.964ZM351.501 185.411L325.987 201.985C324.926 201.442 323.809 201.007 322.693 200.79L315.993 171.772C315.268 168.511 317.836 165.468 321.241 165.523C332.798 165.794 343.629 170.087 352.059 177.315C354.627 179.543 354.348 183.564 351.501 185.411ZM320.683 205.3C324.759 205.572 327.773 209.05 327.494 212.962C327.215 216.929 323.642 219.864 319.622 219.592C315.547 219.32 312.532 215.842 312.811 211.93C313.09 207.963 316.608 205.029 320.683 205.3ZM332.296 213.723C332.407 212.473 332.351 211.223 332.072 209.974L357.363 193.508C360.154 191.661 364.007 192.856 365.179 195.899C365.961 197.91 366.631 200.029 367.077 202.203C369.366 212.147 368.194 222.092 364.397 230.786C363.002 233.938 358.926 234.97 356.19 232.797L332.296 213.723ZM305.386 250.838L318.897 224.32C321.688 224.591 324.591 223.939 326.992 222.363L350.44 241.057C353.008 243.122 353.008 246.98 350.44 248.99C344.857 253.392 338.158 256.652 330.676 258.283C323.251 259.913 315.826 259.75 308.903 258.12C305.553 257.305 303.878 253.772 305.386 250.838ZM278.03 210.082L308.01 214.484C308.289 216.168 308.959 217.799 310.02 219.212L296.397 246.056C294.89 249.045 290.814 249.86 288.246 247.686C280.877 241.383 275.35 232.797 273.061 222.689C272.502 220.298 272.167 217.853 272 215.462C271.777 212.202 274.736 209.593 278.03 210.082Z" fill="#33976D"/>
<g opacity="0.11">
<g opacity="0.11">
<path opacity="0.11" d="M258.713 207.963C261.281 175.032 290.87 150.253 324.703 152.698C358.535 155.198 383.993 183.999 381.481 216.929C378.913 249.86 349.323 274.639 315.491 272.194C281.658 269.749 256.2 240.894 258.713 207.963ZM270.828 208.832C268.762 235.297 289.251 258.391 316.384 260.402C343.573 262.413 367.3 242.47 369.366 216.06C371.432 189.596 350.942 166.501 323.809 164.49C296.621 162.534 272.893 182.423 270.828 208.832Z" fill="black"/>
</g>
</g>
<path d="M326.433 78.9574C326.768 76.6751 326.936 74.3928 326.992 72.1648L315.323 68.2523L313.202 56.5146L322.693 48.9069C320.962 44.5596 318.673 40.484 315.993 36.7345L304.213 40.2667L295.392 32.0068L298.519 20.3779C294.667 17.9869 290.535 16.0306 286.125 14.509L278.644 24.073L266.529 22.3885L262.118 11.1399C257.317 11.4116 252.627 12.2267 248.105 13.5309L247.882 25.5402L237.051 31.083L226.722 24.5621C223.094 27.4965 219.744 30.8113 216.841 34.5065L223.875 44.3422L218.516 55.0474L206.177 55.6995C205.563 57.9818 205.061 60.3728 204.726 62.7638C204.447 64.9918 204.279 67.1654 204.167 69.3391L215.836 73.2516L217.957 84.9893L208.355 92.5427C210.085 96.8899 212.319 101.02 215.054 104.769L226.89 101.292L235.711 109.551L232.529 121.18C236.493 123.626 240.736 125.691 245.314 127.267L252.739 117.648L264.854 119.278L269.32 130.473C274.121 130.201 278.811 129.386 283.333 128.027L283.557 116.018L294.332 110.421L304.716 116.942C308.401 114.007 311.695 110.693 314.598 106.997L307.507 97.1617L312.867 86.4565L325.205 85.8044C325.652 83.5764 326.099 81.2941 326.433 78.9574ZM280.039 93.6295C267.143 101.4 250.171 97.542 242.131 84.9349C234.148 72.3278 238.167 55.8082 251.12 48.0918C264.016 40.2667 280.988 44.1792 288.972 56.732C297.011 69.3391 292.992 85.8587 280.039 93.6295Z" fill="#33976D"/>
<path d="M299.859 50.2654C288.19 31.8438 263.291 26.0836 244.364 37.4952C225.438 48.9068 219.576 73.0342 231.3 91.5102C242.969 109.932 267.869 115.638 286.739 104.28C305.665 92.8687 311.527 68.6326 299.859 50.2654ZM284.673 100.965C267.589 111.236 245.202 106.074 234.65 89.4452C224.098 72.8169 229.346 51.0261 246.43 40.7013C263.514 30.4309 285.957 35.5933 296.509 52.2216C307.061 68.85 301.757 90.695 284.673 100.965Z" fill="#C9D3DB"/>
<path d="M235.264 109.28L235.599 109.606L232.64 121.18L232.417 121.235C236.381 123.68 240.624 125.745 245.202 127.321L245.146 127.104L252.683 117.703L264.798 119.333L269.376 130.364L269.208 130.527C274.01 130.255 278.699 129.44 283.222 128.082L283.054 127.973L283.445 116.072L294.22 110.475L304.604 116.779V116.996C308.289 114.062 311.583 110.747 314.486 107.052H314.263L307.396 97.2161L312.755 86.5109L324.982 85.6958L325.094 85.8588C325.708 83.6308 326.154 81.2942 326.489 78.9575C326.824 76.6752 326.992 74.3929 327.048 72.1649L326.88 72.3279L323.642 71.1868C295.56 99.0637 261.448 107.541 235.264 109.28Z" fill="#33976D"/>
<path d="M286.739 104.226C293.215 100.313 298.184 94.9336 301.422 88.7388C298.854 90.3147 296.342 91.8362 293.718 93.1947C291.205 96.1835 288.191 98.8462 284.617 100.965C276.857 105.639 267.98 107.106 259.606 105.747C256.703 106.4 253.8 106.943 251.008 107.432C262.397 111.725 275.629 110.91 286.739 104.226Z" fill="#C9D3DB"/>
<path d="M248.719 23.0405L249.222 13.3678C249.222 13.3678 255.53 11.3572 260.053 11.3572C260.053 11.3572 252.46 12.7157 248.719 23.0405Z" fill="#33976D"/>
<path opacity="0.14" d="M301.031 495.916C302.148 495.427 303.153 494.775 303.32 494.123C303.488 493.416 302.93 492.71 302.148 492.275C300.027 491.134 295.169 491.677 292.713 491.677C288.302 491.623 283.836 491.677 279.426 491.84C277.416 491.895 255.251 492.438 257.317 496.133C259.159 499.394 270.995 500.1 274.233 500.046C279.593 499.937 285.008 499.774 290.312 498.959C293.048 498.524 295.728 497.872 298.24 497.003C298.91 496.785 300.027 496.405 301.031 495.916Z" fill="black"/>
<path d="M266.808 499.502C276.675 499.502 284.673 491.717 284.673 482.113C284.673 472.509 276.675 464.724 266.808 464.724C256.941 464.724 248.943 472.509 248.943 482.113C248.943 491.717 256.941 499.502 266.808 499.502Z" fill="#C9D3DB"/>
<path d="M259.941 492.492L254.135 481.516L261.058 471.136L273.731 471.734L279.481 482.765L272.614 493.09L259.941 492.492Z" fill="#2E414C"/>
<path d="M266.808 488.471C270.415 488.471 273.34 485.625 273.34 482.113C273.34 478.602 270.415 475.755 266.808 475.755C263.2 475.755 260.276 478.602 260.276 482.113C260.276 485.625 263.2 488.471 266.808 488.471Z" fill="#22323A"/>
<path d="M294.332 427.555L313.202 392.505L328.89 401.852L305.609 434.239L299.412 433.315C298.798 433.206 298.24 432.88 297.849 432.391L294.332 427.555Z" fill="#2E414C"/>
<path d="M296.956 422.229C302.148 424.077 307.452 425.816 312.923 427.555C315.268 428.261 316.719 424.783 314.263 424.023C308.568 422.284 303.097 420.49 297.737 418.643C295.56 417.882 294.834 421.469 296.956 422.229Z" fill="#C9D3DB"/>
<path d="M293.885 428.044C298.742 429.783 303.655 431.522 308.736 433.206C310.913 433.913 312.141 430.815 309.852 430.055C304.604 428.37 299.468 426.631 294.499 424.838C292.489 424.077 291.875 427.283 293.885 428.044Z" fill="#C9D3DB"/>
<path d="M303.823 409.242C309.796 411.035 315.993 412.72 322.414 414.35C325.149 415.056 327.55 410.111 324.647 409.405C317.892 407.775 311.471 406.09 305.218 404.297C302.65 403.59 301.366 408.535 303.823 409.242Z" fill="#C9D3DB"/>
<path d="M300.473 415.654C306.056 417.556 311.806 419.349 317.724 421.088C320.237 421.849 322.023 417.828 319.343 417.067C313.202 415.328 307.228 413.481 301.422 411.579C299.077 410.764 298.184 414.839 300.473 415.654Z" fill="#C9D3DB"/>
<path opacity="0.15" d="M304.604 434.076L322.023 404.351L324.759 407.068L305.442 434.13L304.604 434.076Z" fill="#C9D3DB"/>
<path d="M342.01 397.559C342.233 391.581 337.488 385.115 331.402 381.474C325.317 377.833 317.222 376.637 311.862 379.572C303.711 384.028 303.934 396.146 317.222 404.025C330.453 411.959 341.675 406.634 342.01 397.559Z" fill="#5C7789"/>
<path d="M319.567 400.276C306.335 392.396 305.33 381.419 312.923 377.942C317.892 375.605 325.764 377.181 331.849 380.822C337.934 384.462 342.903 390.549 343.071 395.928C343.294 404.025 332.854 408.155 319.567 400.276Z" fill="#C9D3DB"/>
<path d="M321.911 379.409L331.402 382.452L338.046 389.57L336.092 396.907L322.191 394.57L315.212 383.539L321.911 379.409Z" fill="#2E414C"/>
<path d="M325.764 390.494C322.247 388.375 320.851 385.223 322.47 383.647C323.866 382.289 326.992 382.615 329.672 384.245C332.352 385.875 334.082 388.429 333.468 390.222C332.798 392.287 329.281 392.559 325.764 390.494Z" fill="#22323A"/>
<path d="M363.783 296.973L341.563 259.913L355.521 252.142L377.741 289.203L374.335 295.778C373.777 296.865 372.604 297.517 371.32 297.462L363.783 296.973Z" fill="#2E414C"/>
<path d="M349.268 273.824C353.846 269.586 358.368 265.293 362.834 260.837C364.677 258.989 361.438 255.566 359.596 257.413C355.186 261.815 350.663 266.162 346.03 270.401C344.076 272.194 347.369 275.563 349.268 273.824Z" fill="#C9D3DB"/>
<path d="M354.069 281.921C358.647 277.682 363.169 273.389 367.635 268.933C369.478 267.086 366.24 263.662 364.397 265.51C359.987 269.911 355.465 274.259 350.831 278.497C348.877 280.291 352.115 283.714 354.069 281.921Z" fill="#C9D3DB"/>
<path d="M358.87 290.018C363.448 285.779 367.97 281.486 372.437 277.03C374.279 275.183 371.041 271.759 369.199 273.607C364.788 278.008 360.266 282.356 355.632 286.594C353.678 288.388 356.916 291.811 358.87 290.018Z" fill="#C9D3DB"/>
<path d="M363.616 298.169C368.194 293.93 372.716 289.637 377.182 285.181C379.025 283.334 375.787 279.91 373.944 281.758C369.534 286.159 365.012 290.507 360.378 294.745C358.424 296.539 361.718 299.908 363.616 298.169Z" fill="#C9D3DB"/>
<path opacity="0.08" d="M375.117 294.311L374.056 296.484L350.943 260.239L356.693 256.163L375.117 294.311Z" fill="#C9D3DB"/>
<path d="M359.149 236.601C353.734 234.155 345.248 235.949 338.772 239.97C332.296 243.937 327.048 250.566 327.048 256.381C326.992 265.13 338.381 269.423 352.506 260.728C366.631 252.088 367.412 240.296 359.149 236.601Z" fill="#5C7789"/>
<path d="M350.217 257.25C336.092 265.945 325.429 262.739 326.043 254.805C326.434 249.588 331.905 243.285 338.381 239.318C344.857 235.351 353.064 233.231 358.145 235.079C365.849 237.905 364.342 248.556 350.217 257.25Z" fill="#C9D3DB"/>
<path d="M332.742 248.719L340.447 241.546L350.44 238.394L356.302 242.795L346.979 254.098L333.189 256.109L332.742 248.719Z" fill="#2E414C"/>
<path d="M345.025 249.425C341.284 251.762 337.599 251.762 336.985 249.751C336.427 248.067 338.381 245.404 341.228 243.665C344.076 241.926 347.37 241.328 348.765 242.524C350.328 243.937 348.765 247.143 345.025 249.425Z" fill="#22323A"/>
<path d="M269.487 215.788L276.689 236.546C277.527 238.883 280.151 240.187 282.552 239.372L285.231 238.503C287.632 237.688 288.972 235.134 288.134 232.797L280.932 212.039C280.095 209.702 277.471 208.398 275.07 209.213L272.391 210.082C269.99 210.843 268.65 213.452 269.487 215.788Z" fill="#2E414C"/>
<path d="M273.563 229.754C278.699 229.645 283.78 229.645 288.916 229.645C290.368 229.645 290.535 231.873 289.028 231.873C283.891 231.873 278.811 231.928 273.675 231.982C272.223 231.982 272.111 229.754 273.563 229.754Z" fill="#52575C"/>
<path d="M271.274 223.179C276.41 223.07 281.491 223.07 286.627 223.07C288.079 223.07 288.246 225.298 286.739 225.298C281.602 225.298 276.522 225.352 271.386 225.406C269.934 225.406 269.822 223.179 271.274 223.179Z" fill="#52575C"/>
<path d="M269.934 217.201C275.07 217.092 280.151 217.092 285.287 217.092C286.739 217.092 286.906 219.32 285.399 219.32C280.263 219.32 275.182 219.375 270.046 219.429C268.65 219.429 268.483 217.201 269.934 217.201Z" fill="#52575C"/>
<path d="M271.218 211.55C274.066 211.169 276.969 210.789 279.816 210.517C281.938 210.3 285.12 209.376 287.241 210.463C289.251 211.495 290.256 214.484 291.205 216.386C292.489 218.994 293.606 221.711 294.499 224.428C295.337 226.874 296.006 229.373 296.509 231.927C296.956 233.884 297.235 235.894 295.56 237.198C291.875 240.133 285.343 239.752 280.821 239.698C278.085 239.644 277.695 235.46 280.43 235.46C284.227 235.514 287.967 235.514 291.54 234.373C292.88 233.938 292.713 233.938 292.433 232.471C292.21 231.384 291.931 230.351 291.652 229.265C291.149 227.417 290.591 225.569 289.921 223.776C289.251 221.983 288.525 220.19 287.688 218.396C287.241 217.473 286.795 216.332 286.181 215.462C285.399 214.267 285.343 214.375 284.115 214.321C282.273 214.212 280.207 214.701 278.364 214.919C276.131 215.19 273.898 215.462 271.665 215.788C268.929 216.169 268.594 211.93 271.218 211.55Z" fill="#CECECE"/>
<path d="M261.225 214.158C263.235 213.614 265.3 213.343 267.31 212.745C267.645 212.636 267.924 212.528 268.259 212.473C270.939 211.658 272.558 215.571 269.878 216.494C269.208 216.712 268.483 216.984 267.757 217.147C266.138 217.744 264.686 218.722 264.742 220.679C264.854 223.233 265.914 226.058 266.919 228.395C267.98 230.949 269.264 233.34 270.883 235.568C271.832 236.872 271.721 237.198 273.34 236.981C274.735 236.818 276.187 236.601 277.583 236.438C279.034 236.275 279.872 237.307 279.928 238.394C280.43 239.263 280.374 240.35 279.313 241.057C276.131 243.122 271.832 245.132 268.315 242.415C266.473 241.002 265.803 238.503 264.909 236.492C263.849 234.101 262.788 231.71 261.727 229.319C260.22 225.95 256.814 221.059 257.819 217.255C258.322 215.625 259.606 214.593 261.225 214.158Z" fill="#2E414C"/>
<path d="M301.813 227.2C307.731 226.602 313.425 225.57 319.231 224.428C323.139 223.668 326.936 223.015 330.676 221.82C334.417 220.679 338.046 219.375 341.842 218.342C344.634 217.581 353.455 214.267 355.241 217.853C356.302 219.972 354.069 222.635 352.785 224.157C350.831 226.439 348.821 228.721 346.755 230.841C340.502 237.144 333.468 242.687 325.763 247.252C319.678 250.892 313.146 253.881 306.223 255.348C305.442 255.511 304.604 255.674 303.823 255.783C303.488 255.837 303.097 255.892 302.818 255.729C302.371 255.511 302.148 255.022 301.98 254.533C299.524 246.925 297.514 239.209 296.006 231.384C295.839 230.406 295.672 229.319 296.118 228.395C296.9 226.928 300.361 227.363 301.813 227.2Z" fill="#596874"/>
<path d="M262.174 214.701C261.002 214.864 260.332 216.006 260.722 217.147L268.148 238.122C268.483 239.046 269.432 239.644 270.381 239.535L279.816 238.177L286.795 258.065C286.571 257.794 283.668 257.739 282.663 257.359C280.877 256.653 279.314 256.435 277.36 256.272C265.021 255.077 251.901 254.696 241.406 262.141C224.489 274.096 207.908 286.486 191.271 298.821C174.41 311.32 157.662 324.035 141.248 337.077C140.913 337.349 140.578 337.621 140.243 337.838C132.148 344.305 124.053 350.88 116.013 357.401C111.826 360.77 107.639 364.193 103.396 367.562C98.8735 371.203 96.0262 374.953 89.6617 372.997C83.9671 371.258 78.2167 367.291 74.4761 362.835C71.4055 359.14 69.3399 354.847 68.3349 350.173C67.2183 345.174 65.2643 338.925 70.5681 335.664C72.9129 334.251 75.2019 332.784 77.3793 331.208C111.547 308.603 146.273 286.105 179.938 262.576C182.338 260.891 184.683 259.261 187.084 257.576C195.905 251.436 210.588 240.405 219.241 233.992C236.046 221.494 238 212.202 247.714 197.041C251.622 190.9 255.251 184.596 258.768 178.239L271.163 213.615L262.174 214.701Z" fill="#52575C"/>
<path d="M288.358 161.284C301.087 158.947 332.351 174.109 340.614 177.478C348.877 180.847 343.461 187.15 343.461 187.15C342.01 187.368 340.502 187.585 339.051 187.857C335.087 188.509 331.067 189.161 327.104 189.922C324.2 190.465 321.297 191.009 318.45 191.606C316.998 191.878 315.547 192.204 314.095 192.476C312.923 192.748 311.862 193.291 310.746 193.617C309.461 193.997 308.177 194.378 306.949 194.867C304.604 195.791 302.036 197.095 300.138 198.779C299.468 199.377 298.407 200.899 298.798 201.877C298.854 201.986 318.841 256.163 318.841 256.163C319.064 256.816 318.617 257.468 317.892 257.522L286.795 258.174C286.795 258.174 288.246 257.087 287.856 253.283C287.632 250.675 287.074 248.067 286.46 245.567C285.79 242.904 285.008 240.296 284.227 237.688L292.099 236.601C294.499 236.275 295.895 233.775 294.946 231.438L287.8 213.343C287.465 212.473 286.516 211.876 285.622 211.984L276.466 213.071C271.944 199.921 266.752 187.042 260.89 174.38C260.164 175.684 259.494 176.989 258.768 178.347L258.21 176.771C263.235 170.631 275.629 163.621 288.358 161.284Z" fill="#C9D3DB"/>
<path d="M284.282 237.524C285.12 240.133 285.901 242.741 286.516 245.404C287.13 247.958 287.688 250.512 287.911 253.12C288.246 256.924 286.85 258.011 286.85 258.011L279.872 238.122L284.282 237.524Z" fill="#59626B"/>
<path d="M276.522 212.962L271.218 213.615L258.824 178.239C259.55 176.934 260.276 175.63 260.946 174.272C266.808 186.933 272 199.866 276.522 212.962Z" fill="#59626B"/>
<path d="M194.174 298.712C193.895 298.93 193.56 299.147 193.281 299.365C175.304 312.678 157.494 326.209 140.02 340.12C139.685 340.392 139.294 340.664 138.959 340.935C130.305 347.837 121.708 354.792 113.11 361.748C108.644 365.389 104.177 368.975 99.6551 372.562C94.7979 376.42 91.839 380.441 85.0278 378.376C78.9424 376.529 72.857 372.344 68.8373 367.562C65.5434 363.65 63.3661 359.031 62.3053 354.086C61.1329 348.76 59.0114 342.131 64.6501 338.599C67.1066 337.077 69.5631 335.556 71.9079 333.871C104.401 312.461 138.736 290.072 170.893 267.901L194.174 298.712Z" fill="#25282B"/>
<path d="M91.447 360.669C95.4933 357.767 96.3566 352.222 93.3753 348.283C90.3939 344.345 84.6969 343.505 80.6505 346.407C76.6042 349.308 75.7408 354.854 78.7222 358.792C81.7035 362.731 87.4006 363.571 91.447 360.669Z" fill="#C9D3DB"/>
<path opacity="0.08" d="M191.829 284.801L184.739 275.455C183.399 273.716 183.79 271.216 185.576 269.912C197.133 261.652 235.376 234.047 237.777 230.515C239.842 227.417 242.075 224.374 244.253 221.331C245.481 219.592 249.612 211.658 251.566 211.115C255.977 209.919 258.043 221.82 259.048 224.591C261.002 230.134 262.844 235.677 264.742 241.22C265.3 242.959 264.072 244.752 262.174 244.861C258.043 245.078 251.287 245.947 246.318 249.045C239.898 253.12 208.02 277.574 197.635 285.562C195.849 286.921 193.225 286.594 191.829 284.801Z" fill="#C9D3DB"/>
<path d="M80.5056 346.152C84.8045 343.055 90.834 343.978 94.0163 348.163C97.1986 352.347 96.2495 358.216 91.9506 361.313C87.6518 364.411 81.6222 363.487 78.44 359.303C75.3135 355.118 76.2068 349.25 80.5056 346.152ZM81.1198 346.967C77.2675 349.739 76.4859 355.01 79.2774 358.705C82.1247 362.454 87.5401 363.215 91.3365 360.498C95.1887 357.727 95.9703 352.456 93.1789 348.76C90.3874 345.011 84.972 344.196 81.1198 346.967Z" fill="#52575C"/>
<path d="M143.537 302.951L148.562 306.918L154.2 306.32L154.982 307.407L153.642 308.331L158.499 309.091L161.123 312.026L159.895 316.971L155.596 320.231L150.572 318.547L146.44 313.928L139.35 308.82L143.537 302.951Z" fill="#EBCEB1"/>
<path d="M148.841 301.919L103.396 257.902C101.833 256.381 100.828 253.12 99.8227 251.218C97.422 246.708 95.0214 242.252 92.6766 237.742C91.0575 234.699 88.936 228.069 85.8096 226.222C80.6733 223.233 73.3596 229.047 70.8473 233.014C63.1429 245.187 71.6848 257.359 76.3744 269.042L82.1807 278.28L140.69 314.145L148.841 301.919Z" fill="#C9D3DB"/>
<path d="M63.9802 177.478C64.2035 182.912 66.4925 188.128 69.6748 192.53C71.2938 192.15 72.8012 191.335 74.3086 190.519C80.9523 186.879 87.5401 182.966 93.0672 177.749C98.5943 172.587 103.172 165.523 105.35 159.708C100.604 156.176 93.2347 154.437 87.1493 154.763C75.9835 155.47 63.5335 165.468 63.9802 177.478Z" fill="#33976D"/>
<path d="M112.44 146.014C114.506 145.254 117.074 144.656 118.805 146.014C120.87 147.59 120.424 150.796 119.475 153.187C116.348 161.284 109.984 168.185 102.056 172.098C98.5944 173.783 92.1182 175.25 90.555 170.305C89.7175 167.642 91.7274 162.643 92.9556 160.197C96.2496 153.296 105.573 148.568 112.44 146.014Z" fill="#33976D"/>
<path d="M461.038 273.172L455.511 273.226C455.734 270.346 455.901 267.412 456.125 264.532C456.404 260.185 456.739 255.837 457.632 251.544C459.028 244.752 461.987 238.285 466.174 232.688C464.053 230.351 460.089 230.025 457.576 231.873C455.734 233.231 454.785 235.514 454.059 237.633C451.212 245.567 449.369 253.881 448.532 262.25C448.197 265.456 447.415 269.694 447.75 273.226L428.824 273.335C429.048 269.749 429.327 266.162 429.55 262.576C429.829 258.228 430.164 253.881 431.058 249.588C431.951 245.35 433.402 241.22 435.412 237.361C437.31 233.721 439.264 229.21 442.837 227.091C439.711 226.982 436.585 227.417 433.626 228.449C430.164 229.645 428.545 232.471 427.373 235.677C424.526 243.611 422.683 251.925 421.846 260.293C421.455 264.097 420.394 269.368 421.343 273.118C421.343 273.172 421.399 273.226 421.399 273.335H416.542L400.631 334.74H467.458L461.038 273.172Z" fill="#33976D"/>
<path d="M360.713 278.171L350.161 273.715L352.003 269.314L359.931 270.781L359.764 268.336L368.305 273.172L367.077 278.008L360.713 278.171Z" fill="#EBCEB1"/>
<path d="M465.337 247.306C464.555 246.871 463.606 246.545 462.545 246.328C458.19 245.404 453.612 246.545 449.704 248.61C443.507 251.87 438.315 256.978 432.565 260.891C425.977 265.347 419.389 269.803 412.745 274.259L365.961 270.618L364.007 280.345L419.612 295.234C428.099 288.876 436.305 282.682 445.126 276.921C452.998 271.759 462.601 267.738 467.626 259.478C470.529 254.805 469.747 249.642 465.337 247.306Z" fill="#C9D3DB"/>
<path d="M439.99 197.312C438.427 194.921 437.254 192.095 435.524 190.085C433.402 187.694 429.773 186.444 428.713 183.455C427.428 179.814 429.717 175.63 433.179 174.163C435.245 173.239 437.589 173.076 439.878 173.239C440.995 173.293 442.167 173.456 443.172 173.837C445.126 174.652 446.578 176.499 446.913 178.51C447.136 179.977 446.801 181.553 447.359 182.912C449.314 187.476 454.896 188.074 459.084 189.161C463.382 190.248 467.402 190.411 471.143 193.182C476.893 197.475 478.959 205.572 476.614 212.256C474.269 218.94 468.016 223.993 460.982 225.787C457.018 226.819 460.368 223.885 461.317 222.961C463.271 221.113 465.002 218.831 465.895 216.277C467.067 212.962 466.732 209.05 464.276 206.441C462.154 204.159 458.86 203.344 455.79 202.746C453.836 202.366 451.714 201.659 449.704 201.714C448.309 201.714 447.136 202.094 445.74 201.822C443.116 201.279 441.386 199.431 439.99 197.312Z" fill="#534741"/>
<path d="M479.07 229.21C480.41 230.514 482.141 231.764 483.983 231.33C485.212 231.058 486.161 229.971 486.552 228.83C486.942 227.634 486.942 226.385 486.831 225.135C486.217 217.527 482.867 210.191 477.451 204.648C476.391 203.616 475.107 202.529 473.599 202.692C471.534 202.909 470.138 205.681 469.3 207.257C468.63 208.506 471.143 210.191 471.757 211.495C472.483 213.125 472.706 214.973 472.203 216.712C471.813 218.179 471.645 219.429 472.427 220.842C473.99 223.994 476.614 226.819 479.07 229.21Z" fill="#33976D"/>
<path d="M458.302 194.052C460.647 196.28 462.936 198.616 464.946 201.17C468.742 206.115 470.64 211.767 473.543 217.201C475.107 220.081 476.949 217.962 478.847 216.114C480.745 214.212 482.197 211.93 483.034 209.376C484.486 205.083 484.151 200.192 482.141 196.117C480.466 192.747 477.786 190.03 475.107 187.368C471.589 183.835 465.783 182.205 460.703 182.26C458.358 182.314 451.993 183.183 451.044 185.792C450.095 188.237 456.683 192.53 458.302 194.052Z" fill="#33976D"/>
</g>
<defs>
<clipPath id="clip0_3_4482">
<rect width="544" height="517" fill="white"/>
</clipPath>
</defs>
</svg>
